<?xml version="1.0" encoding="utf-8" standalone="no"?>
<!DOCTYPE svg PUBLIC "-//W3C//DTD SVG 1.1//EN"
  "http://www.w3.org/Graphics/SVG/1.1/DTD/svg11.dtd">
<svg xmlns:xlink="http://www.w3.org/1999/xlink" width="792pt" height="432pt" viewBox="0 0 792 432" xmlns="http://www.w3.org/2000/svg" version="1.1">
 <metadata>
  <rdf:RDF xmlns:dc="http://purl.org/dc/elements/1.1/" xmlns:cc="http://creativecommons.org/ns#" xmlns:rdf="http://www.w3.org/1999/02/22-rdf-syntax-ns#">
   <cc:Work>
    <dc:type rdf:resource="http://purl.org/dc/dcmitype/StillImage"/>
    <dc:date>2024-04-19T07:36:26.017978</dc:date>
    <dc:format>image/svg+xml</dc:format>
    <dc:creator>
     <cc:Agent>
      <dc:title>Matplotlib v3.8.4, https://matplotlib.org/</dc:title>
     </cc:Agent>
    </dc:creator>
   </cc:Work>
  </rdf:RDF>
 </metadata>
 <defs>
  <style type="text/css">*{stroke-linejoin: round; stroke-linecap: butt}</style>
 </defs>
 <g id="figure_1">
  <g id="patch_1">
   <path d="M 0 432 
L 792 432 
L 792 0 
L 0 0 
z
" style="fill: #ffffff"/>
  </g>
  <g id="axes_1">
   <g id="patch_2">
    <path d="M 86.222 360.52 
L 770.4 360.52 
L 770.4 21.6 
L 86.222 21.6 
z
" style="fill: #ffffff"/>
   </g>
   <g id="matplotlib.axis_1">
    <g id="xtick_1">
     <g id="line2d_1">
      <defs>
       <path id="ma0aace5063" d="M 0 0 
L 0 3.5 
" style="stroke: #000000; stroke-width: 0.8"/>
      </defs>
      <g>
       <use xlink:href="#ma0aace5063" x="117.321" y="360.52" style="stroke: #000000; stroke-width: 0.8"/>
      </g>
     </g>
     <g id="text_1">
      <!-- 0 -->
      <g transform="translate(110.9585 382.716875) scale(0.2 -0.2)">
       <defs>
        <path id="DejaVuSerif-30" d="M 2034 219 
Q 2513 219 2750 744 
Q 2988 1269 2988 2328 
Q 2988 3391 2750 3916 
Q 2513 4441 2034 4441 
Q 1556 4441 1318 3916 
Q 1081 3391 1081 2328 
Q 1081 1269 1318 744 
Q 1556 219 2034 219 
z
M 2034 -91 
Q 1275 -91 848 546 
Q 422 1184 422 2328 
Q 422 3475 848 4112 
Q 1275 4750 2034 4750 
Q 2797 4750 3222 4112 
Q 3647 3475 3647 2328 
Q 3647 1184 3222 546 
Q 2797 -91 2034 -91 
z
" transform="scale(0.015625)"/>
       </defs>
       <use xlink:href="#DejaVuSerif-30"/>
      </g>
     </g>
    </g>
    <g id="xtick_2">
     <g id="line2d_2">
      <g>
       <use xlink:href="#ma0aace5063" x="233.976299" y="360.52" style="stroke: #000000; stroke-width: 0.8"/>
      </g>
     </g>
     <g id="text_2">
      <!-- 5000 -->
      <g transform="translate(208.526299 382.716875) scale(0.2 -0.2)">
       <defs>
        <path id="DejaVuSerif-35" d="M 3219 4666 
L 3219 4153 
L 1081 4153 
L 1081 2816 
Q 1244 2928 1461 2984 
Q 1678 3041 1947 3041 
Q 2703 3041 3140 2622 
Q 3578 2203 3578 1478 
Q 3578 738 3136 323 
Q 2694 -91 1894 -91 
Q 1572 -91 1234 -12 
Q 897 66 544 225 
L 544 1131 
L 897 1131 
Q 925 688 1179 453 
Q 1434 219 1894 219 
Q 2388 219 2653 544 
Q 2919 869 2919 1478 
Q 2919 2084 2655 2407 
Q 2391 2731 1894 2731 
Q 1613 2731 1398 2631 
Q 1184 2531 1019 2322 
L 750 2322 
L 750 4666 
L 3219 4666 
z
" transform="scale(0.015625)"/>
       </defs>
       <use xlink:href="#DejaVuSerif-35"/>
       <use xlink:href="#DejaVuSerif-30" x="63.623047"/>
       <use xlink:href="#DejaVuSerif-30" x="127.246094"/>
       <use xlink:href="#DejaVuSerif-30" x="190.869141"/>
      </g>
     </g>
    </g>
    <g id="xtick_3">
     <g id="line2d_3">
      <g>
       <use xlink:href="#ma0aace5063" x="350.631599" y="360.52" style="stroke: #000000; stroke-width: 0.8"/>
      </g>
     </g>
     <g id="text_3">
      <!-- 10000 -->
      <g transform="translate(318.819099 382.716875) scale(0.2 -0.2)">
       <defs>
        <path id="DejaVuSerif-31" d="M 909 0 
L 909 331 
L 1722 331 
L 1722 4213 
L 781 3603 
L 781 4013 
L 1919 4750 
L 2350 4750 
L 2350 331 
L 3163 331 
L 3163 0 
L 909 0 
z
" transform="scale(0.015625)"/>
       </defs>
       <use xlink:href="#DejaVuSerif-31"/>
       <use xlink:href="#DejaVuSerif-30" x="63.623047"/>
       <use xlink:href="#DejaVuSerif-30" x="127.246094"/>
       <use xlink:href="#DejaVuSerif-30" x="190.869141"/>
       <use xlink:href="#DejaVuSerif-30" x="254.492188"/>
      </g>
     </g>
    </g>
    <g id="xtick_4">
     <g id="line2d_4">
      <g>
       <use xlink:href="#ma0aace5063" x="467.286898" y="360.52" style="stroke: #000000; stroke-width: 0.8"/>
      </g>
     </g>
     <g id="text_4">
      <!-- 15000 -->
      <g transform="translate(435.474398 382.716875) scale(0.2 -0.2)">
       <use xlink:href="#DejaVuSerif-31"/>
       <use xlink:href="#DejaVuSerif-35" x="63.623047"/>
       <use xlink:href="#DejaVuSerif-30" x="127.246094"/>
       <use xlink:href="#DejaVuSerif-30" x="190.869141"/>
       <use xlink:href="#DejaVuSerif-30" x="254.492188"/>
      </g>
     </g>
    </g>
    <g id="xtick_5">
     <g id="line2d_5">
      <g>
       <use xlink:href="#ma0aace5063" x="583.942197" y="360.52" style="stroke: #000000; stroke-width: 0.8"/>
      </g>
     </g>
     <g id="text_5">
      <!-- 20000 -->
      <g transform="translate(552.129697 382.716875) scale(0.2 -0.2)">
       <defs>
        <path id="DejaVuSerif-32" d="M 819 3553 
L 469 3553 
L 469 4384 
Q 803 4563 1142 4656 
Q 1481 4750 1806 4750 
Q 2534 4750 2956 4397 
Q 3378 4044 3378 3438 
Q 3378 2753 2422 1800 
Q 2347 1728 2309 1691 
L 1131 513 
L 3078 513 
L 3078 1088 
L 3444 1088 
L 3444 0 
L 434 0 
L 434 341 
L 1850 1753 
Q 2319 2222 2519 2614 
Q 2719 3006 2719 3438 
Q 2719 3909 2473 4175 
Q 2228 4441 1797 4441 
Q 1350 4441 1106 4219 
Q 863 3997 819 3553 
z
" transform="scale(0.015625)"/>
       </defs>
       <use xlink:href="#DejaVuSerif-32"/>
       <use xlink:href="#DejaVuSerif-30" x="63.623047"/>
       <use xlink:href="#DejaVuSerif-30" x="127.246094"/>
       <use xlink:href="#DejaVuSerif-30" x="190.869141"/>
       <use xlink:href="#DejaVuSerif-30" x="254.492188"/>
      </g>
     </g>
    </g>
    <g id="xtick_6">
     <g id="line2d_6">
      <g>
       <use xlink:href="#ma0aace5063" x="700.597497" y="360.52" style="stroke: #000000; stroke-width: 0.8"/>
      </g>
     </g>
     <g id="text_6">
      <!-- 25000 -->
      <g transform="translate(668.784997 382.716875) scale(0.2 -0.2)">
       <use xlink:href="#DejaVuSerif-32"/>
       <use xlink:href="#DejaVuSerif-35" x="63.623047"/>
       <use xlink:href="#DejaVuSerif-30" x="127.246094"/>
       <use xlink:href="#DejaVuSerif-30" x="190.869141"/>
       <use xlink:href="#DejaVuSerif-30" x="254.492188"/>
      </g>
     </g>
    </g>
    <g id="text_7">
     <!-- Longitudinal location [m] -->
     <g transform="translate(299.846938 406.073125) scale(0.2 -0.2)">
      <defs>
       <path id="DejaVuSerif-4c" d="M 353 0 
L 353 331 
L 947 331 
L 947 4331 
L 353 4331 
L 353 4666 
L 2175 4666 
L 2175 4331 
L 1581 4331 
L 1581 384 
L 3713 384 
L 3713 1166 
L 4097 1166 
L 4097 0 
L 353 0 
z
" transform="scale(0.015625)"/>
       <path id="DejaVuSerif-6f" d="M 1925 219 
Q 2388 219 2623 584 
Q 2859 950 2859 1663 
Q 2859 2375 2623 2739 
Q 2388 3103 1925 3103 
Q 1463 3103 1227 2739 
Q 991 2375 991 1663 
Q 991 950 1228 584 
Q 1466 219 1925 219 
z
M 1925 -91 
Q 1200 -91 759 389 
Q 319 869 319 1663 
Q 319 2456 758 2934 
Q 1197 3413 1925 3413 
Q 2653 3413 3092 2934 
Q 3531 2456 3531 1663 
Q 3531 869 3092 389 
Q 2653 -91 1925 -91 
z
" transform="scale(0.015625)"/>
       <path id="DejaVuSerif-6e" d="M 263 0 
L 263 331 
L 781 331 
L 781 2988 
L 231 2988 
L 231 3322 
L 1356 3322 
L 1356 2731 
Q 1516 3069 1770 3241 
Q 2025 3413 2363 3413 
Q 2913 3413 3172 3097 
Q 3431 2781 3431 2113 
L 3431 331 
L 3944 331 
L 3944 0 
L 2356 0 
L 2356 331 
L 2853 331 
L 2853 1931 
Q 2853 2541 2703 2767 
Q 2553 2994 2175 2994 
Q 1775 2994 1565 2701 
Q 1356 2409 1356 1850 
L 1356 331 
L 1856 331 
L 1856 0 
L 263 0 
z
" transform="scale(0.015625)"/>
       <path id="DejaVuSerif-67" d="M 3359 2988 
L 3359 72 
Q 3359 -644 2965 -1033 
Q 2572 -1422 1844 -1422 
Q 1516 -1422 1216 -1362 
Q 916 -1303 641 -1184 
L 641 -488 
L 941 -488 
Q 997 -813 1206 -963 
Q 1416 -1113 1806 -1113 
Q 2313 -1113 2548 -827 
Q 2784 -541 2784 72 
L 2784 519 
Q 2616 206 2355 57 
Q 2094 -91 1709 -91 
Q 1097 -91 708 395 
Q 319 881 319 1663 
Q 319 2444 706 2928 
Q 1094 3413 1709 3413 
Q 2094 3413 2355 3264 
Q 2616 3116 2784 2803 
L 2784 3322 
L 3909 3322 
L 3909 2988 
L 3359 2988 
z
M 2784 1825 
Q 2784 2422 2554 2737 
Q 2325 3053 1888 3053 
Q 1444 3053 1217 2703 
Q 991 2353 991 1663 
Q 991 975 1217 622 
Q 1444 269 1888 269 
Q 2325 269 2554 583 
Q 2784 897 2784 1497 
L 2784 1825 
z
" transform="scale(0.015625)"/>
       <path id="DejaVuSerif-69" d="M 622 4353 
Q 622 4497 726 4603 
Q 831 4709 978 4709 
Q 1122 4709 1226 4603 
Q 1331 4497 1331 4353 
Q 1331 4206 1228 4103 
Q 1125 4000 978 4000 
Q 831 4000 726 4103 
Q 622 4206 622 4353 
z
M 1356 331 
L 1900 331 
L 1900 0 
L 231 0 
L 231 331 
L 781 331 
L 781 2988 
L 231 2988 
L 231 3322 
L 1356 3322 
L 1356 331 
z
" transform="scale(0.015625)"/>
       <path id="DejaVuSerif-74" d="M 691 2988 
L 184 2988 
L 184 3322 
L 691 3322 
L 691 4353 
L 1269 4353 
L 1269 3322 
L 2350 3322 
L 2350 2988 
L 1269 2988 
L 1269 878 
Q 1269 456 1350 337 
Q 1431 219 1650 219 
Q 1875 219 1978 351 
Q 2081 484 2088 781 
L 2522 781 
Q 2497 328 2275 118 
Q 2053 -91 1600 -91 
Q 1103 -91 897 129 
Q 691 350 691 878 
L 691 2988 
z
" transform="scale(0.015625)"/>
       <path id="DejaVuSerif-75" d="M 2266 3322 
L 3341 3322 
L 3341 331 
L 3884 331 
L 3884 0 
L 2766 0 
L 2766 588 
Q 2606 256 2353 82 
Q 2100 -91 1766 -91 
Q 1213 -91 952 223 
Q 691 538 691 1209 
L 691 2988 
L 172 2988 
L 172 3322 
L 1269 3322 
L 1269 1388 
Q 1269 781 1417 556 
Q 1566 331 1947 331 
Q 2347 331 2556 625 
Q 2766 919 2766 1478 
L 2766 2988 
L 2266 2988 
L 2266 3322 
z
" transform="scale(0.015625)"/>
       <path id="DejaVuSerif-64" d="M 3359 331 
L 3909 331 
L 3909 0 
L 2784 0 
L 2784 519 
Q 2616 206 2355 57 
Q 2094 -91 1709 -91 
Q 1097 -91 708 395 
Q 319 881 319 1663 
Q 319 2444 706 2928 
Q 1094 3413 1709 3413 
Q 2094 3413 2355 3264 
Q 2616 3116 2784 2803 
L 2784 4531 
L 2241 4531 
L 2241 4863 
L 3359 4863 
L 3359 331 
z
M 2784 1497 
L 2784 1825 
Q 2784 2422 2554 2737 
Q 2325 3053 1888 3053 
Q 1444 3053 1217 2703 
Q 991 2353 991 1663 
Q 991 975 1217 622 
Q 1444 269 1888 269 
Q 2325 269 2554 583 
Q 2784 897 2784 1497 
z
" transform="scale(0.015625)"/>
       <path id="DejaVuSerif-61" d="M 2547 1044 
L 2547 1747 
L 1806 1747 
Q 1378 1747 1168 1562 
Q 959 1378 959 997 
Q 959 650 1171 447 
Q 1384 244 1747 244 
Q 2106 244 2326 466 
Q 2547 688 2547 1044 
z
M 3122 2075 
L 3122 331 
L 3634 331 
L 3634 0 
L 2547 0 
L 2547 359 
Q 2356 128 2106 18 
Q 1856 -91 1522 -91 
Q 969 -91 644 203 
Q 319 497 319 997 
Q 319 1513 691 1797 
Q 1063 2081 1741 2081 
L 2547 2081 
L 2547 2309 
Q 2547 2688 2317 2895 
Q 2088 3103 1672 3103 
Q 1328 3103 1125 2947 
Q 922 2791 872 2484 
L 575 2484 
L 575 3156 
Q 875 3284 1158 3348 
Q 1441 3413 1709 3413 
Q 2400 3413 2761 3070 
Q 3122 2728 3122 2075 
z
" transform="scale(0.015625)"/>
       <path id="DejaVuSerif-6c" d="M 1313 331 
L 1856 331 
L 1856 0 
L 184 0 
L 184 331 
L 738 331 
L 738 4531 
L 184 4531 
L 184 4863 
L 1313 4863 
L 1313 331 
z
" transform="scale(0.015625)"/>
       <path id="DejaVuSerif-20" transform="scale(0.015625)"/>
       <path id="DejaVuSerif-63" d="M 3291 997 
Q 3169 466 2822 187 
Q 2475 -91 1925 -91 
Q 1200 -91 759 389 
Q 319 869 319 1663 
Q 319 2459 759 2936 
Q 1200 3413 1925 3413 
Q 2241 3413 2553 3339 
Q 2866 3266 3181 3116 
L 3181 2266 
L 2847 2266 
Q 2781 2703 2561 2903 
Q 2341 3103 1931 3103 
Q 1466 3103 1228 2742 
Q 991 2381 991 1663 
Q 991 944 1227 581 
Q 1463 219 1931 219 
Q 2303 219 2525 412 
Q 2747 606 2828 997 
L 3291 997 
z
" transform="scale(0.015625)"/>
       <path id="DejaVuSerif-5b" d="M 550 4863 
L 2003 4863 
L 2003 4531 
L 1147 4531 
L 1147 -513 
L 2003 -513 
L 2003 -844 
L 550 -844 
L 550 4863 
z
" transform="scale(0.015625)"/>
       <path id="DejaVuSerif-6d" d="M 3316 2675 
Q 3481 3041 3739 3227 
Q 3997 3413 4341 3413 
Q 4863 3413 5119 3089 
Q 5375 2766 5375 2113 
L 5375 331 
L 5894 331 
L 5894 0 
L 4300 0 
L 4300 331 
L 4800 331 
L 4800 2047 
Q 4800 2556 4650 2772 
Q 4500 2988 4153 2988 
Q 3769 2988 3567 2697 
Q 3366 2406 3366 1850 
L 3366 331 
L 3866 331 
L 3866 0 
L 2291 0 
L 2291 331 
L 2791 331 
L 2791 2069 
Q 2791 2566 2641 2777 
Q 2491 2988 2144 2988 
Q 1759 2988 1557 2697 
Q 1356 2406 1356 1850 
L 1356 331 
L 1856 331 
L 1856 0 
L 263 0 
L 263 331 
L 781 331 
L 781 2994 
L 231 2994 
L 231 3322 
L 1356 3322 
L 1356 2731 
Q 1516 3063 1762 3238 
Q 2009 3413 2322 3413 
Q 2709 3413 2968 3220 
Q 3228 3028 3316 2675 
z
" transform="scale(0.015625)"/>
       <path id="DejaVuSerif-5d" d="M 1947 4863 
L 1947 -844 
L 494 -844 
L 494 -513 
L 1350 -513 
L 1350 4531 
L 494 4531 
L 494 4863 
L 1947 4863 
z
" transform="scale(0.015625)"/>
      </defs>
      <use xlink:href="#DejaVuSerif-4c"/>
      <use xlink:href="#DejaVuSerif-6f" x="66.40625"/>
      <use xlink:href="#DejaVuSerif-6e" x="126.611328"/>
      <use xlink:href="#DejaVuSerif-67" x="191.015625"/>
      <use xlink:href="#DejaVuSerif-69" x="255.029297"/>
      <use xlink:href="#DejaVuSerif-74" x="287.011719"/>
      <use xlink:href="#DejaVuSerif-75" x="327.197266"/>
      <use xlink:href="#DejaVuSerif-64" x="391.601562"/>
      <use xlink:href="#DejaVuSerif-69" x="455.615234"/>
      <use xlink:href="#DejaVuSerif-6e" x="487.597656"/>
      <use xlink:href="#DejaVuSerif-61" x="552.001953"/>
      <use xlink:href="#DejaVuSerif-6c" x="611.621094"/>
      <use xlink:href="#DejaVuSerif-20" x="643.603516"/>
      <use xlink:href="#DejaVuSerif-6c" x="675.390625"/>
      <use xlink:href="#DejaVuSerif-6f" x="707.373047"/>
      <use xlink:href="#DejaVuSerif-63" x="767.578125"/>
      <use xlink:href="#DejaVuSerif-61" x="823.583984"/>
      <use xlink:href="#DejaVuSerif-74" x="883.203125"/>
      <use xlink:href="#DejaVuSerif-69" x="923.388672"/>
      <use xlink:href="#DejaVuSerif-6f" x="955.371094"/>
      <use xlink:href="#DejaVuSerif-6e" x="1015.576172"/>
      <use xlink:href="#DejaVuSerif-20" x="1079.980469"/>
      <use xlink:href="#DejaVuSerif-5b" x="1111.767578"/>
      <use xlink:href="#DejaVuSerif-6d" x="1150.78125"/>
      <use xlink:href="#DejaVuSerif-5d" x="1245.605469"/>
     </g>
    </g>
   </g>
   <g id="matplotlib.axis_2">
    <g id="ytick_1">
     <g id="line2d_7">
      <defs>
       <path id="m30d9953179" d="M 0 0 
L -3.5 0 
" style="stroke: #000000; stroke-width: 0.8"/>
      </defs>
      <g>
       <use xlink:href="#m30d9953179" x="86.222" y="354.775888" style="stroke: #000000; stroke-width: 0.8"/>
      </g>
     </g>
     <g id="text_8">
      <!-- −4 -->
      <g transform="translate(49.737625 362.374325) scale(0.2 -0.2)">
       <defs>
        <path id="DejaVuSerif-2212" d="M 678 2259 
L 4684 2259 
L 4684 1753 
L 678 1753 
L 678 2259 
z
" transform="scale(0.015625)"/>
        <path id="DejaVuSerif-34" d="M 2234 1581 
L 2234 4063 
L 641 1581 
L 2234 1581 
z
M 3609 0 
L 1484 0 
L 1484 331 
L 2234 331 
L 2234 1247 
L 197 1247 
L 197 1588 
L 2241 4750 
L 2859 4750 
L 2859 1581 
L 3750 1581 
L 3750 1247 
L 2859 1247 
L 2859 331 
L 3609 331 
L 3609 0 
z
" transform="scale(0.015625)"/>
       </defs>
       <use xlink:href="#DejaVuSerif-2212"/>
       <use xlink:href="#DejaVuSerif-34" x="83.789062"/>
      </g>
     </g>
    </g>
    <g id="ytick_2">
     <g id="line2d_8">
      <g>
       <use xlink:href="#m30d9953179" x="86.222" y="270.802093" style="stroke: #000000; stroke-width: 0.8"/>
      </g>
     </g>
     <g id="text_9">
      <!-- −2 -->
      <g transform="translate(49.737625 278.40053) scale(0.2 -0.2)">
       <use xlink:href="#DejaVuSerif-2212"/>
       <use xlink:href="#DejaVuSerif-32" x="83.789062"/>
      </g>
     </g>
    </g>
    <g id="ytick_3">
     <g id="line2d_9">
      <g>
       <use xlink:href="#m30d9953179" x="86.222" y="186.828297" style="stroke: #000000; stroke-width: 0.8"/>
      </g>
     </g>
     <g id="text_10">
      <!-- 0 -->
      <g transform="translate(66.497 194.426735) scale(0.2 -0.2)">
       <use xlink:href="#DejaVuSerif-30"/>
      </g>
     </g>
    </g>
    <g id="ytick_4">
     <g id="line2d_10">
      <g>
       <use xlink:href="#m30d9953179" x="86.222" y="102.854502" style="stroke: #000000; stroke-width: 0.8"/>
      </g>
     </g>
     <g id="text_11">
      <!-- 2 -->
      <g transform="translate(66.497 110.452939) scale(0.2 -0.2)">
       <use xlink:href="#DejaVuSerif-32"/>
      </g>
     </g>
    </g>
    <g id="text_12">
     <!-- $D_{x,y}$ [m] -->
     <g transform="translate(39.537625 231.46) rotate(-90) scale(0.2 -0.2)">
      <defs>
       <path id="DejaVuSans-Oblique-44" d="M 1081 4666 
L 2438 4666 
Q 3519 4666 4070 4208 
Q 4622 3750 4622 2847 
Q 4622 2250 4412 1698 
Q 4203 1147 3834 769 
Q 3463 381 2891 190 
Q 2319 0 1538 0 
L 172 0 
L 1081 4666 
z
M 1613 4147 
L 909 519 
L 1734 519 
Q 2794 519 3375 1128 
Q 3956 1738 3956 2847 
Q 3956 3519 3581 3833 
Q 3206 4147 2406 4147 
L 1613 4147 
z
" transform="scale(0.015625)"/>
       <path id="DejaVuSans-Oblique-78" d="M 3841 3500 
L 2234 1784 
L 3219 0 
L 2559 0 
L 1819 1388 
L 531 0 
L -166 0 
L 1556 1844 
L 641 3500 
L 1300 3500 
L 1972 2234 
L 3144 3500 
L 3841 3500 
z
" transform="scale(0.015625)"/>
       <path id="DejaVuSans-2c" d="M 750 794 
L 1409 794 
L 1409 256 
L 897 -744 
L 494 -744 
L 750 256 
L 750 794 
z
" transform="scale(0.015625)"/>
       <path id="DejaVuSans-Oblique-79" d="M 1588 -325 
Q 1188 -997 936 -1164 
Q 684 -1331 294 -1331 
L -159 -1331 
L -63 -850 
L 269 -850 
Q 509 -850 678 -719 
Q 847 -588 1056 -206 
L 1234 128 
L 459 3500 
L 1069 3500 
L 1650 819 
L 3256 3500 
L 3859 3500 
L 1588 -325 
z
" transform="scale(0.015625)"/>
      </defs>
      <use xlink:href="#DejaVuSans-Oblique-44" transform="translate(0 0.015625)"/>
      <use xlink:href="#DejaVuSans-Oblique-78" transform="translate(77.001953 -16.390625) scale(0.7)"/>
      <use xlink:href="#DejaVuSans-2c" transform="translate(118.427734 -16.390625) scale(0.7)"/>
      <use xlink:href="#DejaVuSans-Oblique-79" transform="translate(154.316406 -16.390625) scale(0.7)"/>
      <use xlink:href="#DejaVuSerif-20" transform="translate(198.476562 0.015625)"/>
      <use xlink:href="#DejaVuSerif-5b" transform="translate(230.263672 0.015625)"/>
      <use xlink:href="#DejaVuSerif-6d" transform="translate(269.277344 0.015625)"/>
      <use xlink:href="#DejaVuSerif-5d" transform="translate(364.101562 0.015625)"/>
     </g>
    </g>
   </g>
   <g id="line2d_11">
    <path d="M 117.321 186.139747 
L 117.931107 170.363823 
L 118.036925 170.8673 
L 118.132921 171.473994 
L 118.284573 168.326145 
L 118.57095 157.395301 
L 118.594631 157.607787 
L 119.249359 163.990276 
L 121.474909 187.400083 
L 122.430805 194.536482 
L 123.426832 201.540913 
L 123.470776 201.376048 
L 123.606781 199.161167 
L 124.142879 184.351665 
L 124.518232 168.072457 
L 125.370378 113.555515 
L 125.462347 116.689512 
L 125.998445 135.25514 
L 126.265544 140.967474 
L 126.373798 137.546084 
L 126.909896 112.45131 
L 127.483068 80.586591 
L 127.53834 83.028547 
L 128.323978 125.862887 
L 128.764912 142.673958 
L 128.802947 142.485643 
L 129.217729 133.608182 
L 129.753827 115.789747 
L 130.011991 105.479498 
L 130.0615 107.04431 
L 130.635531 131.257927 
L 131.219432 147.351383 
L 131.259071 147.780309 
L 131.303283 147.123187 
L 131.711889 135.467541 
L 132.247987 113.865431 
L 132.506151 101.791017 
L 132.564199 103.594717 
L 133.129691 126.05463 
L 133.713591 140.766944 
L 133.753231 141.032766 
L 133.831702 138.820496 
L 134.37677 116.362223 
L 135.00031 82.601557 
L 135.074859 85.858859 
L 135.793225 121.239181 
L 136.24739 136.461065 
L 136.325861 134.813772 
L 136.87093 115.962309 
L 137.49447 86.290504 
L 137.569019 89.763692 
L 138.300616 127.402517 
L 138.74155 143.20859 
L 138.779585 142.998068 
L 139.194368 133.937668 
L 139.730466 115.882772 
L 139.988629 105.47931 
L 140.038138 107.044125 
L 140.612169 131.257808 
L 141.196035 147.350588 
L 141.235709 147.780259 
L 141.279922 147.12314 
L 141.688527 135.467516 
L 142.224625 113.865435 
L 142.482789 101.791035 
L 142.540837 103.594737 
L 143.106329 126.054669 
L 143.690194 140.766345 
L 143.729869 141.032827 
L 143.80834 138.820565 
L 144.353409 116.362348 
L 144.976949 82.601745 
L 145.051497 85.859041 
L 145.769863 121.239282 
L 146.224028 136.461115 
L 146.302499 134.813818 
L 146.847568 115.962324 
L 147.471108 86.290486 
L 147.545657 89.763671 
L 148.277254 127.402472 
L 148.718188 143.208529 
L 148.756223 142.998004 
L 149.171006 133.937561 
L 149.707104 115.882609 
L 149.965268 105.479122 
L 150.014776 107.043941 
L 150.588808 131.257722 
L 151.172673 147.350603 
L 151.212347 147.780281 
L 151.25656 147.12317 
L 151.665165 135.467626 
L 152.201263 113.865652 
L 152.459427 101.791299 
L 152.517475 103.594998 
L 153.082967 126.054869 
L 153.666833 140.766482 
L 153.706507 141.032961 
L 153.784978 138.820701 
L 154.330047 116.362511 
L 154.953587 82.601936 
L 155.033076 86.146951 
L 155.746501 121.239412 
L 156.200667 136.461212 
L 156.279138 134.813917 
L 156.824206 115.962444 
L 157.447746 86.290628 
L 157.522295 89.763813 
L 158.253893 127.402708 
L 158.694826 143.208824 
L 158.732862 142.998314 
L 159.147644 133.938066 
L 159.683742 115.883366 
L 159.941906 105.479992 
L 159.991414 107.044794 
L 160.565446 131.258235 
L 161.149311 147.350771 
L 161.188986 147.780427 
L 161.233198 147.123296 
L 161.641803 135.46758 
L 162.177901 113.865379 
L 162.436065 101.790922 
L 162.494113 103.59462 
L 163.059605 126.054601 
L 163.643471 140.766329 
L 163.683145 141.032814 
L 163.761616 138.820557 
L 164.306685 116.362381 
L 164.930225 82.601822 
L 165.004774 85.859118 
L 165.72314 121.239347 
L 166.177305 136.461173 
L 166.255776 134.81388 
L 166.800845 115.962414 
L 167.424385 86.290607 
L 167.498933 89.763787 
L 168.230531 127.402523 
L 168.671464 143.208542 
L 168.7095 142.998014 
L 169.124282 133.937541 
L 169.66038 115.882549 
L 169.918544 105.479045 
L 169.968053 107.043864 
L 170.542084 131.25762 
L 171.125949 147.350476 
L 171.165624 147.780151 
L 171.209836 147.123032 
L 171.618442 135.46741 
L 172.15454 113.865331 
L 172.412704 101.790932 
L 172.470751 103.594641 
L 173.036244 126.054641 
L 173.620144 140.767045 
L 173.659783 141.032874 
L 173.738254 138.820626 
L 174.283323 116.362506 
L 174.906863 82.602011 
L 174.981412 85.8593 
L 175.699778 121.239448 
L 176.153943 136.461224 
L 176.232414 134.813925 
L 176.777483 115.96243 
L 177.401023 86.290589 
L 177.475571 89.763766 
L 178.207169 127.402478 
L 178.648103 143.208481 
L 178.686138 142.99795 
L 179.10092 133.937433 
L 179.637018 115.882386 
L 179.895182 105.478857 
L 179.944691 107.043679 
L 180.518722 131.2575 
L 181.102623 147.351162 
L 181.142262 147.7801 
L 181.186474 147.122985 
L 181.59508 135.467385 
L 182.131178 113.865335 
L 182.389342 101.917822 
L 182.43885 103.455515 
L 183.012882 127.789676 
L 183.596782 143.992714 
L 183.636422 144.321522 
L 183.714893 142.431114 
L 184.259962 122.453095 
L 184.878485 91.721765 
L 184.962664 95.234397 
L 185.834836 140.157042 
L 186.101935 149.831968 
L 186.172909 149.6448 
L 186.380911 146.689008 
L 186.746287 138.816744 
L 187.018403 132.073536 
L 187.062335 132.943291 
L 188.236476 187.562095 
L 188.804313 199.801207 
L 188.896611 200.529143 
L 188.940555 200.37815 
L 189.325167 194.757019 
L 189.544689 192.914741 
L 191.376644 186.805728 
L 191.994911 183.753868 
L 192.468622 179.751727 
L 193.820328 167.951862 
L 193.900225 168.282379 
L 194.258357 176.658833 
L 194.46017 175.670435 
L 194.699489 179.31901 
L 195.760609 199.393327 
L 195.963495 204.961732 
L 196.03385 204.787078 
L 196.320227 199.11157 
L 196.343908 199.12332 
L 196.542654 199.146624 
L 196.739568 198.777915 
L 198.019393 195.963644 
L 198.324505 195.826769 
L 198.431467 195.077156 
L 199.120526 189.348812 
L 200.729564 181.136017 
L 200.773508 181.153058 
L 201.231975 182.363689 
L 201.275919 182.284136 
L 201.367975 181.866712 
L 201.70806 178.618103 
L 202.073413 171.890643 
L 202.27938 169.528432 
L 202.450096 169.043828 
L 202.815449 165.473054 
L 203.131486 158.437165 
L 203.580676 130.291671 
L 204.026605 99.060705 
L 204.097579 100.959 
L 204.670922 127.320045 
L 205.222106 146.099024 
L 205.277377 145.828967 
L 205.515021 142.028978 
L 205.880374 133.410878 
L 206.503879 111.733895 
L 206.582345 114.396858 
L 207.127385 134.607511 
L 207.71125 147.912498 
L 207.75089 148.104439 
L 207.838326 145.946524 
L 208.374395 126.519087 
L 208.9979 95.747048 
L 209.076366 98.534361 
L 209.79461 126.239325 
L 210.244911 136.585818 
L 210.332347 133.913828 
L 210.868416 110.604664 
L 211.491921 75.521364 
L 211.570387 79.350431 
L 212.301938 119.118228 
L 212.738932 136.039036 
L 212.78844 135.51376 
L 213.183596 125.438876 
L 213.72779 105.194365 
L 213.985942 93.934745 
L 214.035451 95.829482 
L 214.609448 125.299346 
L 215.232953 147.558608 
L 215.307502 146.922101 
L 215.660474 140.443981 
L 216.051095 129.625139 
L 216.479964 114.128656 
L 216.538011 115.801597 
L 217.103469 135.76081 
L 217.680125 147.787688 
L 217.726974 148.085494 
L 217.81441 145.924375 
L 218.350479 126.476053 
L 218.973985 95.724506 
L 219.05245 98.585023 
L 219.770694 126.960069 
L 220.220995 137.70816 
L 220.308431 135.162147 
L 220.8445 112.697767 
L 221.468006 78.619037 
L 221.546471 82.413948 
L 222.278022 121.559258 
L 222.715016 138.098849 
L 222.764525 137.594206 
L 223.15968 127.853115 
L 223.703874 108.068159 
L 223.962027 97.039464 
L 224.011535 98.878534 
L 224.585532 127.326931 
L 225.209037 148.462515 
L 225.296473 147.527557 
L 225.653701 140.384352 
L 226.197895 123.382174 
L 226.456048 113.500195 
L 226.505556 114.820067 
L 227.079553 135.268422 
L 227.656139 147.425805 
L 227.703058 147.709071 
L 227.790494 145.491562 
L 228.326564 125.67298 
L 228.950069 94.503599 
L 229.028534 97.40805 
L 229.760086 126.714196 
L 230.197079 137.371888 
L 230.284515 134.858868 
L 230.820585 112.576283 
L 231.44409 78.708152 
L 231.522555 82.522585 
L 232.254107 121.840543 
L 232.6911 138.487149 
L 232.740609 138.011988 
L 233.135764 128.539113 
L 233.679958 109.123494 
L 233.938111 98.257256 
L 233.987619 100.072864 
L 234.561616 128.101867 
L 235.185121 148.78529 
L 235.272557 147.815421 
L 235.629785 140.542652 
L 236.17398 123.343092 
L 236.432132 113.368779 
L 236.48164 114.676777 
L 237.055637 135.00427 
L 237.632224 147.040265 
L 237.679142 147.309636 
L 237.766579 145.038125 
L 238.302648 124.862523 
L 238.926153 93.290631 
L 239.004618 96.240315 
L 239.73617 126.086224 
L 240.173164 137.063055 
L 240.2606 134.586814 
L 240.796669 112.511018 
L 241.420174 78.881671 
L 241.498639 82.712506 
L 242.230191 122.165839 
L 242.667185 138.89743 
L 242.716693 138.450252 
L 243.111848 129.23536 
L 243.656043 110.174988 
L 243.914195 99.464628 
L 243.963704 101.255973 
L 244.5377 128.857554 
L 245.161206 149.079811 
L 245.248642 148.07129 
L 245.60587 140.652451 
L 246.150064 123.230367 
L 246.408216 113.15268 
L 246.457725 114.450485 
L 247.031721 134.686792 
L 247.597716 146.480393 
L 247.655227 146.888886 
L 247.742663 144.56598 
L 248.278732 124.048047 
L 248.902237 92.0906 
L 248.980702 95.086636 
L 249.712254 125.481464 
L 250.149248 136.81313 
L 250.236684 134.435452 
L 250.772753 112.94999 
L 251.396258 79.943838 
L 251.474724 83.688229 
L 252.206275 122.233597 
L 252.643269 138.447513 
L 252.692777 137.949141 
L 253.087933 128.286839 
L 253.632127 108.610363 
L 253.890279 97.583565 
L 253.939788 99.360664 
L 254.513785 127.027783 
L 255.13729 147.327136 
L 255.224726 146.216413 
L 255.581954 138.305714 
L 256.126148 120.134466 
L 256.3843 109.699877 
L 256.433809 111.051522 
L 257.007806 132.330755 
L 257.591671 145.44361 
L 257.631311 145.677421 
L 257.718747 143.450304 
L 258.254816 123.445457 
L 258.878321 92.039225 
L 258.956787 95.037213 
L 259.688338 125.455244 
L 260.125332 136.749925 
L 260.212768 134.275463 
L 260.748837 112.191004 
L 261.372342 78.748609 
L 261.43039 81.538046 
L 262.182359 125.507755 
L 262.652471 144.06283 
L 262.669608 143.906881 
L 263.227278 138.100559 
L 263.59263 131.193427 
L 263.845767 125.11465 
L 263.883901 126.124737 
L 264.688147 156.655428 
L 264.795329 158.414744 
L 264.829439 158.134381 
L 264.912034 156.64555 
L 265.269262 147.935492 
L 265.70124 133.738913 
L 265.786608 135.199699 
L 266.180667 142.895611 
L 266.564851 146.6583 
L 266.612644 146.51016 
L 266.748256 141.068423 
L 268.131135 81.008044 
L 268.165082 81.322679 
L 268.278599 85.724124 
L 269.579795 143.327056 
L 269.985406 151.862041 
L 272.241239 186.906832 
L 273.701064 216.28106 
L 274.148437 232.467664 
L 275.919218 299.663247 
L 275.963547 299.579424 
L 276.052205 298.338478 
L 276.328444 287.65084 
L 277.617719 202.209847 
L 279.017711 133.776232 
L 279.064944 134.361312 
L 279.272492 136.751243 
L 279.459003 137.91429 
L 279.637845 138.280035 
L 279.843187 137.638022 
L 279.929115 135.054025 
L 280.802409 80.392881 
L 280.874654 82.902406 
L 281.493318 109.739226 
L 281.746454 117.267396 
L 281.784588 116.14718 
L 282.977884 59.377164 
L 283.033155 63.053217 
L 283.636152 99.928176 
L 284.259658 127.981589 
L 284.338123 126.758416 
L 284.883163 110.323916 
L 285.506668 83.15565 
L 285.582144 86.810608 
L 286.32481 126.500565 
L 286.753679 142.750611 
L 286.811726 142.364223 
L 287.185035 135.379597 
L 287.563695 124.721717 
L 288.000689 108.797206 
L 288.058737 110.740838 
L 288.624194 133.873162 
L 289.20806 149.283202 
L 289.2477 149.711232 
L 289.291912 149.128073 
L 289.700489 138.40913 
L 290.236558 118.035901 
L 290.49471 106.468699 
L 290.552758 108.111435 
L 291.118215 128.564794 
L 291.702081 141.20977 
L 291.741721 141.370207 
L 291.820186 139.016474 
L 292.365226 115.654258 
L 292.988731 80.831164 
L 293.072268 84.571103 
L 293.612237 112.173453 
L 294.235742 134.423984 
L 294.314207 132.722594 
L 294.859247 113.413016 
L 295.482752 83.203935 
L 295.557301 86.79984 
L 296.300894 126.534494 
L 296.729763 142.750231 
L 296.779271 142.458323 
L 297.161119 135.125926 
L 297.53978 124.245576 
L 297.976773 108.109796 
L 298.034821 110.105714 
L 298.600279 133.815765 
L 299.184109 149.818195 
L 299.223784 150.274295 
L 299.273292 149.628245 
L 299.676573 139.505144 
L 300.212642 119.769966 
L 300.470794 108.52781 
L 300.528842 110.171486 
L 301.0943 130.422388 
L 301.670886 142.745608 
L 301.717805 142.994276 
L 301.79627 140.695907 
L 302.34131 117.834704 
L 302.964815 83.607314 
L 303.048352 87.276791 
L 303.588321 114.235517 
L 304.211826 135.725028 
L 304.290291 133.98079 
L 304.835331 114.464964 
L 305.458836 84.061569 
L 305.533385 87.644813 
L 306.276978 127.163315 
L 306.705847 143.259612 
L 306.755356 142.976806 
L 307.137203 135.755182 
L 307.515864 124.98466 
L 307.952858 108.9666 
L 308.010905 110.930689 
L 308.576363 134.244015 
L 309.160229 149.83751 
L 309.199868 150.265139 
L 309.24408 149.697366 
L 309.652657 139.173827 
L 310.188726 119.056934 
L 310.446879 107.64019 
L 310.504926 109.292843 
L 311.070384 129.722027 
L 311.654215 142.337283 
L 311.693889 142.485292 
L 311.772354 140.171377 
L 312.317394 117.165735 
L 312.9409 82.781841 
L 313.024437 86.500428 
L 313.564405 113.832016 
L 314.18791 135.752209 
L 314.266375 134.064136 
L 314.811415 114.941592 
L 315.434921 84.97853 
L 315.509469 88.546074 
L 316.249163 127.641209 
L 316.681931 143.767649 
L 316.719967 143.657953 
L 317.113288 136.361256 
L 317.491948 125.68137 
L 317.928942 109.759545 
L 317.986989 111.692484 
L 318.552447 134.622249 
L 319.136278 149.818982 
L 319.175952 150.220116 
L 319.220165 149.620718 
L 319.628741 138.799036 
L 320.16481 118.290988 
L 320.422963 106.695711 
L 320.48101 108.359544 
L 321.046468 128.994194 
L 321.630299 141.821644 
L 321.669973 141.978826 
L 321.748439 139.653323 
L 322.293479 116.531011 
L 322.916984 82.021696 
L 322.991532 85.264925 
L 323.709858 120.611423 
L 324.163994 135.814751 
L 324.24246 134.183689 
L 324.7875 115.462839 
L 325.411005 85.949166 
L 325.485553 89.49809 
L 326.225247 128.307389 
L 326.658015 144.271791 
L 326.696051 144.164079 
L 327.089372 136.941476 
L 327.468032 126.332904 
L 327.905026 110.44861 
L 327.963074 112.30692 
L 328.528531 134.442063 
L 329.112397 148.82246 
L 329.152036 149.175783 
L 329.190072 148.643624 
L 329.604825 136.807273 
L 330.140895 115.16444 
L 330.399047 103.020138 
L 330.457095 104.718873 
L 331.022552 126.069697 
L 331.606418 139.641676 
L 331.646058 139.849947 
L 331.724523 137.501821 
L 332.269563 114.070814 
L 332.893068 79.185717 
L 332.967617 82.518327 
L 333.689777 119.170659 
L 334.140079 134.962063 
L 334.218544 133.440477 
L 334.763584 115.421941 
L 335.387089 86.655336 
L 335.461638 90.168857 
L 336.193189 128.20551 
L 336.6341 144.296332 
L 336.672135 144.188498 
L 337.065456 136.967237 
L 337.444116 126.359956 
L 337.88111 110.677026 
L 337.939158 112.772944 
L 338.504615 137.189063 
L 339.128121 154.531909 
L 339.206586 153.826922 
L 339.58091 147.092761 
L 340.116979 131.353149 
L 340.370115 122.097435 
L 340.425386 123.311777 
L 341.326431 151.031256 
L 341.593519 155.340993 
L 341.701766 153.797957 
L 342.058994 145.352009 
L 342.50994 131.478313 
L 342.553872 132.118703 
L 343.727956 181.067589 
L 344.093309 187.039824 
L 344.45231 189.738014 
L 346.659066 200.576533 
L 347.509524 211.792431 
L 347.549304 211.77535 
L 347.676044 211.64299 
L 349.579392 206.159136 
L 351.769875 205.296523 
L 352.26678 206.410593 
L 353.447401 209.164842 
L 353.655888 209.313652 
L 354.143927 216.897251 
L 354.519137 222.559449 
L 354.573895 222.097352 
L 357.395489 182.290763 
L 357.770825 174.400738 
L 358.128053 169.788655 
L 358.578998 158.989595 
L 358.714893 150.967173 
L 359.518051 90.577255 
L 359.626298 94.491226 
L 360.340949 126.678617 
L 360.713551 139.581478 
L 360.786058 138.729916 
L 361.192978 129.86267 
L 361.737172 111.565957 
L 361.995324 101.181599 
L 362.044833 102.929776 
L 362.61883 129.779926 
L 363.242335 149.11923 
L 363.329771 147.827143 
L 363.686999 139.220228 
L 364.231193 119.988335 
L 364.489345 109.090913 
L 364.547393 110.763938 
L 365.112851 131.208148 
L 365.696717 143.839344 
L 365.736356 143.99553 
L 365.823792 141.43374 
L 366.359861 119.218041 
L 366.983367 85.352361 
L 367.061832 88.607402 
L 367.793383 122.030914 
L 368.230377 135.114676 
L 368.317813 132.809159 
L 368.853882 111.603403 
L 369.477388 78.980656 
L 369.535435 81.584643 
L 370.287404 123.069138 
L 370.724398 140.236237 
L 370.773907 139.86113 
L 371.169062 131.266384 
L 371.713256 113.059942 
L 371.971409 102.716831 
L 372.020917 104.41684 
L 372.594914 130.524593 
L 373.218419 149.118239 
L 373.305855 147.826508 
L 373.663083 139.221013 
L 374.207277 119.991282 
L 374.46543 109.094846 
L 374.523477 110.767879 
L 375.088935 131.211774 
L 375.672801 143.842644 
L 375.71244 143.998842 
L 375.799876 141.437304 
L 376.335945 119.223365 
L 376.959451 85.359656 
L 377.037916 88.61437 
L 377.769468 122.034134 
L 378.206461 135.115668 
L 378.293897 132.809795 
L 378.829967 111.601908 
L 379.453472 78.976725 
L 379.511519 81.580703 
L 380.263489 123.065618 
L 380.700482 140.232926 
L 380.749991 139.857691 
L 381.145146 131.261648 
L 381.68934 113.053418 
L 381.947493 102.709535 
L 381.997001 104.409722 
L 382.570998 130.520416 
L 383.194503 149.117246 
L 383.281939 147.825872 
L 383.639167 139.221795 
L 384.183361 119.994226 
L 384.441514 109.098775 
L 384.499562 110.77182 
L 385.065019 131.215495 
L 385.64885 143.845605 
L 385.688524 144.002357 
L 385.775961 141.441105 
L 386.31203 119.229145 
L 386.935535 85.367654 
L 387.014 88.622018 
L 387.745552 122.037738 
L 388.182545 135.116871 
L 388.269982 132.810625 
L 388.806051 111.600524 
L 389.429556 78.972805 
L 389.487604 81.576769 
L 390.239573 123.062218 
L 390.676567 140.229805 
L 390.726075 139.854459 
L 391.12123 131.257265 
L 391.665425 113.047452 
L 391.923577 102.702887 
L 391.973086 104.403241 
L 392.547082 130.516698 
L 393.170588 149.116521 
L 393.258024 147.8255 
L 393.615251 139.222843 
L 394.159446 119.997435 
L 394.417598 109.102967 
L 394.475646 110.776003 
L 395.041103 131.219097 
L 395.624934 143.848608 
L 395.664609 144.005351 
L 395.752045 141.444281 
L 396.288114 119.233632 
L 396.911619 85.373604 
L 396.990084 88.627687 
L 397.721636 122.040247 
L 398.15863 135.117499 
L 398.246066 132.810934 
L 398.782135 111.598907 
L 399.40564 78.96899 
L 399.463688 81.572955 
L 400.215657 123.058767 
L 400.652651 140.226531 
L 400.702159 139.851056 
L 401.097315 131.252551 
L 401.641509 113.040933 
L 401.899661 102.695589 
L 401.94917 104.396119 
L 402.523166 130.512465 
L 403.146672 149.115413 
L 403.234108 147.824731 
L 403.591336 139.223413 
L 404.13553 120.000045 
L 404.393682 109.106508 
L 404.45173 110.779563 
L 405.017188 131.222469 
L 405.601053 143.852318 
L 405.640693 144.008547 
L 405.728129 141.447739 
L 406.264198 119.2389 
L 406.887703 85.380901 
L 406.966169 88.634661 
L 407.69772 122.043472 
L 408.134714 135.118496 
L 408.22215 132.811574 
L 408.758219 111.59742 
L 409.381724 78.965068 
L 409.439772 81.569025 
L 410.191741 123.055251 
L 410.628735 140.223221 
L 410.678243 139.847618 
L 411.073399 131.247813 
L 411.617593 113.034405 
L 411.875745 102.688287 
L 411.925254 104.388995 
L 412.499251 130.508283 
L 413.122756 149.114416 
L 413.210192 147.82409 
L 413.56742 139.224189 
L 414.111614 120.002981 
L 414.369766 109.110428 
L 414.427814 110.783491 
L 414.993272 131.226087 
L 415.577138 143.85907 
L 415.616777 144.034417 
L 415.704213 141.517681 
L 416.240282 119.581468 
L 416.863788 85.954853 
L 416.942253 89.069332 
L 417.673804 121.127525 
L 418.105782 133.248646 
L 418.376034 125.117589 
L 418.905234 106.985111 
L 419.351164 88.594658 
L 419.459411 96.5862 
L 420.311517 164.087405 
L 420.760707 177.439016 
L 421.314884 187.461123 
L 421.672112 191.661928 
L 421.850953 192.597786 
L 422.053403 192.615099 
L 422.101756 192.586323 
L 422.189645 192.949627 
L 422.612987 197.293393 
L 423.794098 209.457121 
L 424.470909 220.271806 
L 424.623471 220.660313 
L 425.644671 224.903818 
L 426.826973 229.460284 
L 427.057495 229.979369 
L 427.137392 232.083262 
L 427.414227 251.798719 
L 427.425893 251.580572 
L 427.57184 239.098219 
L 427.84199 213.322776 
L 428.917552 153.750171 
L 428.997776 153.930834 
L 429.119366 155.38479 
L 429.271018 148.481135 
L 429.557395 125.256406 
L 429.581076 125.654771 
L 430.629935 144.602437 
L 432.325684 175.517114 
L 433.445528 188.778203 
L 434.457221 201.473459 
L 434.501165 201.29295 
L 434.763948 197.122075 
L 435.30254 182.926883 
L 435.675399 167.163486 
L 436.356824 131.582278 
L 436.444887 133.38895 
L 436.806043 141.230553 
L 437.187304 145.960363 
L 437.251989 145.70412 
L 437.530965 132.606845 
L 438.239041 89.026153 
L 438.469514 74.790369 
L 438.524785 77.062565 
L 439.301032 117.909358 
L 439.751357 134.131083 
L 439.829828 132.386639 
L 440.374897 112.689951 
L 440.998436 82.068872 
L 441.073912 85.761763 
L 441.81663 125.893957 
L 442.245516 142.359759 
L 442.295025 142.043631 
L 442.694429 133.992676 
L 443.055585 123.27064 
L 443.492596 106.822963 
L 443.550644 108.830164 
L 444.116136 132.748975 
L 444.700036 148.967196 
L 444.739676 149.421549 
L 444.789184 148.723838 
L 445.192494 138.050476 
L 445.728592 117.583875 
L 445.986755 106.01222 
L 446.044803 107.700305 
L 446.610295 128.606944 
L 447.194196 141.715238 
L 447.233835 141.881651 
L 447.312306 139.522763 
L 447.857375 116.104124 
L 448.480915 81.258573 
L 448.555464 84.485682 
L 449.104455 112.608233 
L 449.727995 134.81976 
L 449.806466 133.023729 
L 450.351535 113.017299 
L 450.975075 82.068476 
L 451.049623 85.702625 
L 451.793268 125.89373 
L 452.222154 142.359621 
L 452.271663 142.043498 
L 452.671067 133.992564 
L 453.032223 123.270546 
L 453.469234 106.822894 
L 453.527282 108.830101 
L 454.092774 132.748988 
L 454.676639 148.966538 
L 454.716314 149.421645 
L 454.765822 148.723946 
L 455.169132 138.050682 
L 455.70523 117.584212 
L 455.963394 106.012616 
L 456.021441 107.700693 
L 456.586934 128.607212 
L 457.170799 141.714821 
L 457.210473 141.881788 
L 457.288945 139.522895 
L 457.834013 116.104228 
L 458.457553 81.258642 
L 458.532102 84.485743 
L 459.081093 112.60822 
L 459.704633 134.819664 
L 459.783104 133.023615 
L 460.328173 113.017052 
L 460.951713 82.06808 
L 461.026261 85.702243 
L 461.769907 125.893579 
L 462.198793 142.359602 
L 462.248301 142.043492 
L 462.647705 133.992673 
L 463.008861 123.270759 
L 463.445872 106.823228 
L 463.50392 108.830433 
L 464.069412 132.749264 
L 464.653278 148.966756 
L 464.692952 149.421862 
L 464.742461 148.724167 
L 465.14577 138.050965 
L 465.681868 117.584577 
L 465.940032 106.013016 
L 465.99808 107.70108 
L 466.563572 128.607457 
L 467.147437 141.714919 
L 467.187112 141.881877 
L 467.265583 139.522972 
L 467.810652 116.104224 
L 468.434191 81.258548 
L 468.50874 84.485653 
L 469.057731 112.608267 
L 469.681271 134.819868 
L 469.759742 133.023855 
L 470.304811 113.017556 
L 470.928351 82.068879 
L 471.0029 85.703015 
L 471.746545 125.893955 
L 472.175431 142.359751 
L 472.224939 142.043623 
L 472.624344 133.99266 
L 472.985499 123.270616 
L 473.422511 106.822931 
L 473.480558 108.830134 
L 474.04605 132.749048 
L 474.629916 148.966626 
L 474.66959 149.421736 
L 474.719099 148.724043 
L 475.122408 138.050841 
L 475.658506 117.584453 
L 475.91667 106.012894 
L 475.974718 107.700964 
L 476.54021 128.607388 
L 477.124075 141.7149 
L 477.16375 141.881861 
L 477.242221 139.522961 
L 477.78729 116.104249 
L 478.41083 81.258612 
L 478.485378 84.485709 
L 479.03437 112.60816 
L 479.657909 134.819573 
L 479.736381 133.023513 
L 480.281449 113.016866 
L 480.904989 82.067802 
L 480.979538 85.701972 
L 481.723183 125.89336 
L 482.152069 142.359411 
L 482.201577 142.043296 
L 482.600982 133.992416 
L 482.962138 123.270447 
L 483.399149 106.822854 
L 483.457196 108.830072 
L 484.022689 132.74906 
L 484.606589 148.967464 
L 484.646229 149.421832 
L 484.695737 148.72415 
L 485.099046 138.051047 
L 485.635144 117.58479 
L 485.893308 106.013289 
L 485.951356 107.701351 
L 486.516848 128.607656 
L 487.100749 141.715606 
L 487.140388 141.881998 
L 487.218859 139.523093 
L 487.763928 116.104352 
L 488.387468 81.258682 
L 488.462016 84.485769 
L 489.011008 112.608148 
L 489.634548 134.819477 
L 489.713019 133.023399 
L 490.258088 113.016619 
L 490.881627 82.067406 
L 490.956176 85.701588 
L 491.699821 125.893133 
L 492.128707 142.359274 
L 492.178216 142.043163 
L 492.57762 133.992304 
L 492.938776 123.270354 
L 493.375787 106.790723 
L 493.433835 108.75966 
L 493.999327 132.310634 
L 494.583227 148.133139 
L 494.622867 148.464907 
L 494.660902 147.879903 
L 495.075685 135.306777 
L 495.611783 112.711696 
L 495.86493 100.441391 
L 495.920202 102.092394 
L 496.821281 141.386854 
L 497.088381 148.775516 
L 497.196634 146.257178 
L 497.732732 125.835298 
L 498.004848 114.386676 
L 498.04878 115.156013 
L 499.40945 185.355591 
L 499.88904 194.696621 
L 501.199196 215.453178 
L 501.253954 215.074491 
L 502.090413 205.605897 
L 502.137379 205.673706 
L 510.01346 217.045312 
L 510.064999 216.871291 
L 510.119757 215.833447 
L 510.969007 196.52972 
L 512.525148 175.688505 
L 512.890524 167.531835 
L 513.215835 159.97848 
L 513.228597 160.087252 
L 513.436599 161.477383 
L 513.605974 161.749463 
L 513.623128 161.738262 
L 513.801975 161.238795 
L 514.074091 158.339979 
L 514.209991 151.779401 
L 515.013189 98.84857 
L 515.121442 102.689644 
L 515.836134 133.29878 
L 516.208735 145.431168 
L 516.281242 144.751588 
L 516.688191 136.361334 
L 517.232414 118.702064 
L 517.490578 108.617376 
L 517.540087 110.177822 
L 518.114118 134.034085 
L 518.698019 149.770427 
L 518.737658 150.22938 
L 518.787167 149.542666 
L 519.182351 139.223831 
L 519.726574 118.642593 
L 519.984738 107.169758 
L 520.042786 108.890364 
L 520.608278 130.05819 
L 521.192178 143.432053 
L 521.231818 143.604594 
L 521.31926 140.999859 
L 521.855358 118.445682 
L 522.478897 84.255313 
L 522.557369 87.6968 
L 523.288966 123.038754 
L 523.725977 137.249966 
L 523.764013 136.670982 
L 524.17067 123.098529 
L 524.714893 98.498353 
L 524.973057 85.360112 
L 525.022566 87.377311 
L 525.783126 127.919723 
L 526.220137 144.237378 
L 526.269645 143.889614 
L 526.66483 135.783204 
L 527.209053 118.24895 
L 527.467217 108.211511 
L 527.516725 109.785166 
L 528.090756 133.843582 
L 528.674657 149.775545 
L 528.714296 150.19327 
L 528.758509 149.574827 
L 529.158989 138.70821 
L 529.703212 117.539366 
L 529.961376 105.764015 
L 530.019424 107.454317 
L 530.584916 128.473214 
L 531.168816 141.69743 
L 531.208456 141.863177 
L 531.295898 139.123074 
L 531.831996 115.623655 
L 532.455536 80.325866 
L 532.534007 83.863306 
L 533.265604 120.485317 
L 533.702615 135.472183 
L 533.740651 134.923113 
L 534.147308 121.470808 
L 534.691531 97.031512 
L 534.949695 83.935705 
L 534.999204 85.9829 
L 535.759764 127.215229 
L 536.196775 143.952197 
L 536.246284 143.663107 
L 536.628155 136.325859 
L 537.014969 125.168873 
L 537.443855 109.289184 
L 537.501902 111.233511 
L 538.067395 134.352592 
L 538.65126 149.744236 
L 538.690935 150.144268 
L 538.735147 149.503848 
L 539.135627 138.432295 
L 539.67985 116.984975 
L 539.938014 105.084626 
L 539.996062 106.783882 
L 540.561554 127.959731 
L 541.14542 141.345467 
L 541.185094 141.519097 
L 541.272536 138.77139 
L 541.808634 115.202908 
L 542.432174 79.830061 
L 542.510645 83.397429 
L 543.242243 120.346568 
L 543.679254 135.529339 
L 543.717289 134.999112 
L 544.123946 121.756105 
L 544.668169 97.596895 
L 544.926333 84.626726 
L 544.975842 86.666935 
L 545.736402 127.680267 
L 546.173413 144.295063 
L 546.222922 144.00812 
L 546.604793 136.715558 
L 546.991607 125.603823 
L 547.420493 109.769218 
L 547.478541 111.69296 
L 548.044033 134.5629 
L 548.627898 149.697293 
L 548.667573 150.07927 
L 548.705608 149.564357 
L 549.112266 138.138038 
L 549.656489 116.409164 
L 549.914653 104.382596 
L 549.9727 106.091768 
L 550.538192 127.436166 
L 551.122058 140.995966 
L 551.161732 141.177748 
L 551.249174 138.424477 
L 551.785272 114.799656 
L 552.408812 79.366216 
L 552.487283 82.962804 
L 553.218881 120.229358 
L 553.655892 135.602402 
L 553.693927 135.091057 
L 554.100585 122.059591 
L 554.644808 98.183463 
L 554.902972 85.340119 
L 554.95248 87.37256 
L 555.71304 128.15116 
L 556.150051 144.634716 
L 556.19956 144.348747 
L 556.581431 137.091522 
L 556.968245 126.01557 
L 557.397131 110.215898 
L 557.455179 112.11953 
L 558.020671 134.748328 
L 558.604571 149.634398 
L 558.644211 149.99804 
L 558.682246 149.464247 
L 559.088904 137.825486 
L 559.633127 115.812323 
L 559.891291 103.658472 
L 559.949338 105.378529 
L 560.514831 126.903186 
L 561.098731 140.645466 
L 561.138371 140.812014 
L 561.225812 138.001051 
L 561.76191 113.997788 
L 562.38545 78.189076 
L 562.463921 81.912967 
L 563.195519 120.478811 
L 563.63253 136.607537 
L 563.676742 136.015054 
L 564.077223 124.079458 
L 564.621446 101.458753 
L 564.87961 89.21755 
L 564.929118 91.231852 
L 565.689679 131.103051 
L 566.12669 147.066617 
L 566.176198 146.811929 
L 566.384854 143.573447 
L 566.75023 135.220391 
L 567.373769 114.057634 
L 567.45224 116.752768 
L 567.997309 137.034488 
L 568.58121 150.422698 
L 568.620849 150.674251 
L 568.708291 148.732929 
L 569.244389 130.716218 
L 569.867929 101.611668 
L 569.9464 104.302671 
L 570.491469 125.47224 
L 571.075369 139.812722 
L 571.115009 140.018028 
L 571.202451 137.238002 
L 571.738549 113.373485 
L 572.362088 77.818943 
L 572.420136 80.423247 
L 573.172157 122.1896 
L 573.604152 139.315372 
L 573.659423 138.776676 
L 574.403633 125.01577 
L 574.835628 112.523722 
L 574.873763 113.721674 
L 576.07267 176.083345 
L 576.611261 185.503305 
L 576.984121 189.221181 
L 577.17065 189.962302 
L 577.349497 189.92312 
L 578.803517 183.134108 
L 579.382997 182.263312 
L 580.038419 181.14468 
L 580.706095 179.513055 
L 580.984546 177.622711 
L 582.044569 169.087689 
L 582.180385 168.828012 
L 582.224714 168.844418 
L 582.313372 168.954493 
L 582.487305 169.905967 
L 585.723253 193.859906 
L 586.950234 205.988073 
L 586.994563 205.934436 
L 587.124849 205.395532 
L 588.709676 196.429857 
L 589.190505 194.264073 
L 589.302611 194.423657 
L 589.969576 195.544065 
L 590.091781 194.49147 
L 590.449032 189.129023 
L 590.936298 176.314107 
L 591.53933 149.935175 
L 591.830636 136.242781 
L 591.881719 136.698628 
L 592.304597 143.449786 
L 592.677168 145.73944 
L 592.688799 145.759693 
L 592.736592 145.405501 
L 593.02952 131.782416 
L 593.737596 89.511211 
L 593.968068 75.701741 
L 594.02334 78.07661 
L 594.81712 121.487287 
L 595.249912 138.071845 
L 595.287947 137.773218 
L 595.702729 127.062304 
L 596.238827 106.874532 
L 596.496991 95.564786 
L 596.5465 97.439397 
L 597.120531 126.520458 
L 597.744071 148.30303 
L 597.822542 147.428874 
L 598.196889 139.514176 
L 598.732987 122.084137 
L 598.991151 111.955865 
L 599.040659 113.34146 
L 599.614691 134.771382 
L 600.198591 148.029438 
L 600.238231 148.245403 
L 600.316702 146.324468 
L 600.86177 126.366962 
L 601.48531 95.384372 
L 601.572752 98.785233 
L 602.303504 128.301618 
L 602.73239 138.911493 
L 602.810861 136.688653 
L 603.35593 113.941437 
L 603.97947 79.938941 
L 604.054019 83.503966 
L 604.797664 123.319528 
L 605.22655 139.501756 
L 605.276058 138.95689 
L 605.679368 128.621542 
L 606.215466 108.604748 
L 606.473629 97.3918 
L 606.523138 99.231847 
L 607.097169 127.690127 
L 607.720709 148.825448 
L 607.79918 147.948708 
L 608.173527 140.048009 
L 608.709625 122.637991 
L 608.967789 112.477603 
L 609.017298 113.802189 
L 609.591329 134.464398 
L 610.16795 146.836123 
L 610.214869 147.116157 
L 610.29334 145.037152 
L 610.838409 123.895137 
L 611.461949 91.553738 
L 611.54939 95.031346 
L 612.280142 125.526763 
L 612.709028 136.716787 
L 612.787499 134.467614 
L 613.332568 111.37563 
L 613.956108 76.958755 
L 614.030657 80.621645 
L 614.774302 121.725191 
L 615.203188 138.670022 
L 615.252696 138.201399 
L 615.656006 128.418525 
L 616.192104 109.136112 
L 616.450268 98.224962 
L 616.499776 100.048091 
L 617.073808 128.209086 
L 617.697347 149.023663 
L 617.775819 148.122634 
L 618.150165 140.115689 
L 618.686263 122.553515 
L 618.944427 112.321444 
L 618.993936 113.639272 
L 619.567967 134.242683 
L 620.144588 146.555361 
L 620.191507 146.827574 
L 620.269978 144.716938 
L 620.815047 123.333301 
L 621.438587 90.724244 
L 621.526029 94.238663 
L 622.256781 125.114364 
L 622.685667 136.525454 
L 622.764138 134.30133 
L 623.309206 111.369836 
L 623.932746 77.13476 
L 624.007295 80.806257 
L 624.75094 121.976816 
L 625.179826 138.963356 
L 625.229335 138.513143 
L 625.632644 128.906351 
L 626.168742 109.857969 
L 626.426906 99.050837 
L 626.476414 100.856731 
L 627.050446 128.717582 
L 627.673986 149.208169 
L 627.752457 148.281339 
L 628.126803 140.160225 
L 628.662901 122.434547 
L 628.921065 112.125743 
L 628.970574 113.437626 
L 629.544605 133.996486 
L 630.121226 146.26443 
L 630.168145 146.529883 
L 630.246616 144.388813 
L 630.791685 122.771221 
L 631.415225 89.90319 
L 631.498762 93.250845 
L 632.038765 117.731662 
L 632.662305 136.347887 
L 632.740776 134.150256 
L 633.285845 111.390336 
L 633.909385 77.349331 
L 633.983933 81.02801 
L 634.727578 122.247208 
L 635.156464 139.26495 
L 635.205973 138.832324 
L 635.609282 129.395585 
L 636.14538 110.573219 
L 636.403544 99.86635 
L 636.453053 101.654754 
L 637.027084 129.213834 
L 637.650624 149.378514 
L 637.729095 148.424501 
L 638.103442 140.181892 
L 638.63954 122.282223 
L 638.897704 111.927856 
L 638.947212 113.27117 
L 639.521244 134.216822 
L 640.105144 146.982226 
L 640.144783 147.15292 
L 640.223254 145.075542 
L 640.768323 123.947573 
L 641.391863 91.666974 
L 641.4754 95.01869 
L 642.015403 119.404779 
L 642.638943 137.89835 
L 642.717414 135.764294 
L 643.262483 113.561331 
L 643.886023 80.179074 
L 643.960571 83.800332 
L 644.704216 124.149503 
L 645.133103 140.652052 
L 645.182611 140.198016 
L 645.58592 130.705759 
L 646.122018 111.809525 
L 646.380182 101.095499 
L 646.429691 102.862954 
L 647.003722 130.029628 
L 647.627262 149.74948 
L 647.705733 148.734413 
L 648.08008 140.218324 
L 648.616178 121.927007 
L 648.874342 111.278207 
L 648.93239 112.843821 
L 649.497882 132.084655 
L 650.056981 143.147598 
L 650.121422 143.586919 
L 650.199893 141.163614 
L 650.744962 117.362983 
L 651.363485 82.399501 
L 651.442368 85.786857 
L 652.319836 131.655545 
L 652.586935 141.46414 
L 652.657909 141.060595 
L 653.052439 132.885418 
L 653.503403 120.268614 
L 653.547335 121.270393 
L 654.721476 184.459021 
L 655.289313 198.343465 
L 655.425555 199.362607 
L 655.675862 196.636387 
L 655.981067 194.18833 
L 656.080691 194.558496 
L 657.301512 199.812935 
L 657.345619 199.778721 
L 657.447798 199.166301 
L 658.17827 193.691374 
L 658.344387 193.272839 
L 659.102296 189.69583 
L 659.979766 185.904056 
L 660.200624 185.661591 
L 660.206089 185.665702 
L 660.32993 185.721329 
L 660.481582 185.47232 
L 660.773687 184.654402 
L 660.794802 184.666821 
L 661.90361 185.24809 
L 662.175055 184.715913 
L 662.186721 184.728385 
L 662.349776 185.293615 
L 662.648081 186.35568 
L 662.912224 186.649523 
L 664.242619 186.569281 
L 665.197629 188.767866 
L 665.3941 189.448861 
L 666.935793 195.32552 
L 667.040013 194.922734 
L 668.023691 185.6865 
L 668.389044 179.780814 
L 668.76438 172.923049 
L 668.935096 171.836163 
L 669.300449 166.976378 
L 669.616486 158.644941 
L 670.065676 126.453605 
L 670.511605 91.330429 
L 670.582579 93.258273 
L 671.155922 121.217506 
L 671.707106 141.477206 
L 671.762377 141.082703 
L 672.186533 132.646662 
L 672.730727 115.29118 
L 672.988879 105.252534 
L 673.038388 106.834744 
L 673.612385 131.275189 
L 674.19625 147.594584 
L 674.23589 148.01241 
L 674.280102 147.34965 
L 674.680554 135.936223 
L 675.224748 114.024469 
L 675.4829 101.930177 
L 675.540948 103.721707 
L 676.106406 126.04792 
L 676.690271 140.622758 
L 676.729911 140.877757 
L 676.817347 138.323049 
L 677.353416 115.952273 
L 677.976921 81.942366 
L 678.055387 85.448054 
L 678.786938 121.535206 
L 679.223932 136.220702 
L 679.261967 135.699886 
L 679.668596 122.73857 
L 680.21279 98.956281 
L 680.470942 86.140631 
L 680.520451 88.106581 
L 681.267652 127.042807 
L 681.717953 143.354247 
L 681.755988 143.157659 
L 682.162617 134.481148 
L 682.706811 116.432579 
L 682.964964 106.128379 
L 683.014472 107.683152 
L 683.588469 131.700543 
L 684.172335 147.594921 
L 684.211974 148.01289 
L 684.256186 147.350305 
L 684.656638 135.938511 
L 685.200832 114.028977 
L 685.458985 101.935683 
L 685.517032 103.727138 
L 686.08249 126.052071 
L 686.666356 140.625586 
L 686.705995 140.880524 
L 686.793431 138.32587 
L 687.3295 115.955602 
L 687.953006 81.946244 
L 688.031471 85.451695 
L 688.763022 121.53627 
L 689.200016 136.220222 
L 689.238052 135.699257 
L 689.64468 122.736282 
L 690.188874 98.951772 
L 690.447027 86.135127 
L 690.496535 88.101131 
L 691.243736 127.039049 
L 691.694037 143.35148 
L 691.732073 143.154884 
L 692.138701 134.477988 
L 692.682895 116.428904 
L 692.941048 106.1245 
L 692.990556 107.679407 
L 693.564553 131.698821 
L 694.148384 147.594527 
L 694.188058 148.01337 
L 694.232271 147.350959 
L 694.632722 135.940799 
L 695.176916 114.033485 
L 695.435069 101.941186 
L 695.493116 103.732571 
L 696.058574 126.056362 
L 696.642405 140.628048 
L 696.682079 140.883588 
L 696.769515 138.329036 
L 697.305585 115.959591 
L 697.92909 81.951139 
L 698.007555 85.456319 
L 698.739107 121.53789 
L 699.1761 136.220046 
L 699.214136 135.69892 
L 699.620764 122.734192 
L 700.164958 98.947337 
L 700.423111 86.129635 
L 700.472619 88.095684 
L 701.21982 127.035365 
L 701.670121 143.34883 
L 701.708157 143.152235 
L 702.114785 134.475048 
L 702.65898 116.425574 
L 702.917132 106.121023 
L 702.96664 107.676057 
L 703.540637 131.697394 
L 704.124468 147.595056 
L 704.164142 148.014038 
L 704.208355 147.351801 
L 704.608806 135.943293 
L 705.153001 114.038224 
L 705.411153 101.946931 
L 705.469201 103.738228 
L 706.034658 126.060469 
L 706.618489 140.630556 
L 706.658164 140.886013 
L 706.7456 138.331443 
L 707.281669 115.962037 
L 707.905174 81.953605 
L 707.983639 85.458596 
L 708.715191 121.538214 
L 709.152185 136.219195 
L 709.19022 135.69794 
L 709.596848 122.731725 
L 710.141043 98.942879 
L 710.399195 86.124289 
L 710.448704 88.090404 
L 711.195904 127.031701 
L 711.646206 143.346112 
L 711.684241 143.149508 
L 712.09087 134.471918 
L 712.635064 116.421907 
L 712.893216 106.11714 
L 712.942725 107.672307 
L 713.516721 131.695611 
L 714.100587 147.596004 
L 714.140227 148.014395 
L 714.184439 147.352323 
L 714.584891 135.945354 
L 715.129085 114.042376 
L 715.387237 101.952022 
L 715.445285 103.743254 
L 716.010742 126.064351 
L 716.594608 140.633904 
L 716.634248 140.88866 
L 716.721684 138.334153 
L 717.257753 115.965308 
L 717.881258 81.957486 
L 717.959724 85.462245 
L 718.691275 121.539283 
L 719.128269 136.218719 
L 719.166304 135.697315 
L 719.572933 122.729441 
L 720.117127 98.938376 
L 720.375279 86.11879 
L 720.424788 88.08496 
L 721.171989 127.027945 
L 721.62229 143.343344 
L 721.660325 143.146732 
L 722.066954 134.468755 
L 722.611148 116.418225 
L 722.8693 106.113253 
L 722.918809 107.668554 
L 723.492806 131.693883 
L 724.076671 147.596335 
L 724.116311 148.01487 
L 724.160523 147.352973 
L 724.560975 135.947637 
L 725.105169 114.046879 
L 725.363321 101.95752 
L 725.421369 103.748679 
L 725.986827 126.068498 
L 726.570692 140.640448 
L 726.610332 140.915686 
L 726.697768 138.408352 
L 727.233837 116.331267 
L 727.857342 82.573905 
L 727.935808 85.934205 
L 728.667359 120.608355 
L 729.099337 134.284074 
L 729.137471 133.622267 
L 730.344719 95.278136 
L 730.452966 102.866256 
L 731.305072 166.286723 
L 731.754262 179.097411 
L 732.308439 188.280805 
L 732.665667 191.430072 
L 732.844508 191.839491 
L 733.139255 191.0159 
L 733.225067 191.163724 
L 734.790056 197.269835 
L 735.449345 201.679849 
L 735.617026 201.802924 
L 736.028819 202.748344 
L 737.720997 206.593853 
L 738.05105 206.793247 
L 738.130947 207.719641 
L 738.407782 216.697204 
L 738.419448 216.590988 
L 738.565395 210.765506 
L 738.834869 198.721071 
L 739.301 186.139787 
L 739.301 186.139787 
" clip-path="url(#p2a83e4cb84)" style="fill: none; stroke: #1f77b4; stroke-width: 2; stroke-linecap: square"/>
   </g>
   <g id="line2d_12">
    <path d="M 117.321 186.598441 
L 117.931107 134.889117 
L 118.214218 93.36788 
L 118.284573 94.583853 
L 118.637502 125.143644 
L 121.276851 134.976631 
L 122.505266 163.203673 
L 123.606781 180.41874 
L 124.480952 183.834877 
L 125.462347 193.35878 
L 126.265544 206.220035 
L 126.323755 206.015254 
L 127.601369 194.472537 
L 128.764912 193.367698 
L 129.217729 189.530509 
L 130.099433 181.512422 
L 131.259071 166.120681 
L 131.317119 166.509098 
L 132.593593 178.977994 
L 133.753231 180.313177 
L 134.206048 184.141341 
L 135.087752 192.144126 
L 136.24739 207.53593 
L 136.305438 207.147516 
L 137.581912 194.678701 
L 138.74155 193.343692 
L 139.194368 189.515457 
L 140.076071 181.512534 
L 141.235709 166.120635 
L 141.293757 166.509047 
L 142.570231 178.97782 
L 143.729869 180.312707 
L 144.182687 184.140993 
L 145.06439 192.144014 
L 146.224028 207.535977 
L 146.282076 207.147567 
L 147.55855 194.678875 
L 148.718188 193.344163 
L 149.171006 189.515804 
L 150.05271 181.512646 
L 151.212347 166.12058 
L 151.270395 166.508987 
L 152.546869 178.977641 
L 153.706507 180.312227 
L 154.159325 184.14064 
L 155.041029 192.143903 
L 156.200667 207.536042 
L 156.258714 207.147638 
L 157.535188 194.679062 
L 158.694826 193.344703 
L 159.147644 189.516208 
L 160.029348 181.512789 
L 161.188986 166.120578 
L 161.247033 166.508977 
L 162.523507 178.977458 
L 163.683145 180.311655 
L 164.135963 184.140207 
L 165.017667 192.143732 
L 166.177305 207.535987 
L 166.235352 207.147592 
L 167.511826 194.679237 
L 168.671464 193.345214 
L 169.124282 189.516591 
L 170.005986 181.512928 
L 171.165624 166.120578 
L 171.223672 166.50897 
L 172.500146 178.977284 
L 173.659783 180.311185 
L 174.112601 184.139859 
L 174.994305 192.14362 
L 176.153943 207.536034 
L 176.211991 207.147644 
L 177.488465 194.679411 
L 178.648103 193.345684 
L 179.10092 189.516939 
L 179.982624 181.513039 
L 181.142262 166.120532 
L 181.20031 166.508918 
L 182.476784 178.939023 
L 183.636422 179.954263 
L 184.089239 183.969987 
L 185.050661 193.521878 
L 186.101935 208.065844 
L 186.210189 206.94121 
L 187.104203 195.535227 
L 187.116953 195.550393 
L 187.892815 196.473284 
L 187.957501 196.400675 
L 188.236476 193.93692 
L 189.325167 184.773235 
L 189.544689 183.727561 
L 191.122207 179.571196 
L 191.422886 176.515243 
L 191.860157 172.510991 
L 191.994911 172.97497 
L 193.900225 180.103844 
L 194.106705 178.023611 
L 194.188725 178.187926 
L 194.354352 180.821937 
L 194.699489 186.268854 
L 195.680385 198.495804 
L 195.882198 196.303249 
L 195.963495 196.403072 
L 196.03385 197.095821 
L 196.24033 201.676068 
L 196.33145 201.5595 
L 198.643453 180.304769 
L 199.111322 175.927962 
L 199.120526 175.930446 
L 200.611078 176.332742 
L 200.669289 176.21974 
L 200.830599 174.489814 
L 201.231975 168.695812 
L 201.275919 168.849572 
L 201.538691 172.865372 
L 202.450096 185.797939 
L 203.223448 192.861418 
L 204.026605 194.78944 
L 204.492081 201.215255 
L 205.222106 211.316711 
L 205.277377 210.813141 
L 206.762032 190.614771 
L 207.838326 182.429996 
L 209.035936 178.200351 
L 210.244911 163.021658 
L 210.294419 163.467793 
L 211.570387 180.62186 
L 213.362437 190.944395 
L 214.04399 194.88024 
L 215.232953 210.75931 
L 215.282462 210.347537 
L 216.558429 194.1279 
L 217.81441 188.447892 
L 219.05245 179.449679 
L 220.220995 163.113831 
L 220.279043 163.606841 
L 221.546471 178.910643 
L 222.773064 182.956357 
L 224.040492 193.507134 
L 225.209037 210.163653 
L 225.267085 209.707546 
L 226.534513 195.336231 
L 227.703058 193.180162 
L 228.147722 189.2495 
L 229.028534 180.901401 
L 230.197079 164.054317 
L 230.255127 164.469961 
L 231.522555 177.796517 
L 232.6911 178.463595 
L 233.118622 182.642039 
L 234.016576 191.956944 
L 235.185121 208.862999 
L 235.243169 208.491066 
L 236.470167 196.281047 
L 236.510597 196.313354 
L 237.639468 197.215443 
L 237.679142 197.140475 
L 237.937295 194.435758 
L 239.184305 179.91646 
L 240.173164 165.705021 
L 240.231211 166.030337 
L 241.458209 177.048483 
L 241.498639 176.964043 
L 242.627545 174.606254 
L 242.667185 174.649164 
L 242.925337 177.547739 
L 244.366984 195.638795 
L 245.161206 206.875128 
L 245.219253 206.598971 
L 246.408216 196.835902 
L 246.486681 196.994675 
L 247.655227 200.779188 
L 247.913379 197.709404 
L 249.712254 173.987922 
L 250.149248 168.003727 
L 250.223796 168.330962 
L 251.396258 176.413486 
L 251.454306 176.230515 
L 252.643269 170.396036 
L 252.901421 173.679239 
L 255.13729 203.496038 
L 255.220827 203.230663 
L 256.3843 197.251561 
L 256.433809 197.478328 
L 257.631311 205.44828 
L 257.718747 204.409163 
L 259.867179 175.708862 
L 260.163367 172.611121 
L 260.208869 172.777753 
L 261.372342 176.916369 
L 261.630495 174.884826 
L 262.614337 166.945352 
L 262.652471 167.285986 
L 264.677239 194.712307 
L 264.829439 195.790713 
L 264.863771 195.741667 
L 265.70124 193.64439 
L 265.739374 193.776255 
L 266.612644 198.376316 
L 266.650779 198.20138 
L 267.227045 193.079968 
L 268.685248 179.183039 
L 269.508939 171.280595 
L 269.845769 170.06188 
L 269.985406 170.1646 
L 271.699026 171.726484 
L 271.930936 171.271465 
L 272.152581 169.738038 
L 272.379709 166.839691 
L 273.568077 151.62878 
L 273.701064 151.138544 
L 273.745393 151.192951 
L 273.984081 152.842738 
L 276.052205 175.734128 
L 276.38581 176.649426 
L 277.46693 176.969148 
L 277.60932 177.787981 
L 279.272492 192.285481 
L 279.929115 198.997005 
L 279.976349 198.918521 
L 280.754615 198.103549 
L 280.802409 198.171826 
L 281.127965 201.987944 
L 281.746454 209.224895 
L 281.784588 208.946669 
L 282.225881 204.55675 
L 283.016018 197.269905 
L 283.070601 197.32034 
L 284.259658 197.551402 
L 284.51781 194.78214 
L 285.764821 180.007008 
L 286.753679 165.782487 
L 286.811726 166.088426 
L 288.038725 176.675884 
L 288.084226 176.551489 
L 289.20806 173.477868 
L 289.2477 173.500265 
L 289.505852 176.513172 
L 291.118215 197.437218 
L 291.741721 206.124743 
L 291.799768 205.893984 
L 292.988731 197.213852 
L 293.046779 197.371724 
L 294.235742 202.689095 
L 294.493894 199.451838 
L 296.729763 169.623486 
L 296.808228 169.90645 
L 297.976773 176.646641 
L 298.026282 176.456803 
L 299.223784 169.444103 
L 299.302249 170.341107 
L 301.717805 202.49668 
L 301.75584 202.481015 
L 302.964815 196.965321 
L 303.009028 197.1747 
L 304.211826 205.597289 
L 304.290291 204.682283 
L 306.276978 178.021568 
L 306.743882 172.803934 
L 306.784312 172.941587 
L 307.952858 176.815104 
L 308.21101 174.787968 
L 309.199868 166.82112 
L 309.237904 167.164939 
L 310.891543 189.780109 
L 311.731925 199.114795 
L 311.772354 199.028583 
L 312.9409 196.639456 
L 313.199052 198.936122 
L 314.18791 207.9174 
L 314.225946 207.577577 
L 315.866277 185.245138 
L 316.719967 176.375706 
L 316.760397 176.409801 
L 317.889267 177.361792 
L 317.928942 177.295825 
L 318.187094 174.747568 
L 319.175952 164.822007 
L 319.220165 165.245727 
L 320.681115 185.454035 
L 321.748439 195.383667 
L 322.916984 196.007635 
L 323.175136 198.787573 
L 324.163994 209.579854 
L 324.208207 209.165634 
L 325.669157 189.259551 
L 326.736481 180.202904 
L 327.905026 178.07809 
L 328.34969 172.902578 
L 329.152036 163.618294 
L 329.201545 164.081839 
L 330.486483 181.670179 
L 331.724523 190.521894 
L 332.93728 195.289477 
L 334.140079 210.4813 
L 334.189587 210.045869 
L 335.474525 193.169732 
L 337.968546 178.591873 
L 339.128121 162.587939 
L 339.186168 163.065873 
L 340.475367 178.071366 
L 341.593519 180.251128 
L 342.058994 184.423259 
L 342.816551 192.308965 
L 343.507203 200.135572 
L 343.541908 200.098224 
L 344.297228 199.285391 
L 344.347098 199.360469 
L 344.45231 200.49498 
L 346.604308 226.121447 
L 346.646275 225.743472 
L 347.549304 212.998492 
L 353.613921 211.474668 
L 353.655888 211.287571 
L 354.154659 202.531968 
L 354.713531 194.037049 
L 356.809489 173.243565 
L 356.85942 173.353292 
L 357.597892 174.976121 
L 357.662578 174.829809 
L 357.941541 169.87341 
L 358.578998 158.390752 
L 358.622931 158.530851 
L 358.88561 163.930781 
L 359.626298 178.265435 
L 361.955685 196.20412 
L 362.07379 198.028833 
L 363.242335 220.206835 
L 363.291843 219.550725 
L 364.567811 194.486081 
L 365.823792 181.944825 
L 367.027579 175.008421 
L 368.230377 153.44874 
L 368.279886 154.104777 
L 369.555853 179.167548 
L 370.811834 191.70415 
L 372.015621 198.646261 
L 373.218419 220.208894 
L 373.267928 219.552931 
L 374.543895 194.49196 
L 375.799876 181.959927 
L 377.003663 175.012211 
L 378.206461 153.446684 
L 378.25597 154.102574 
L 379.531937 179.16167 
L 380.787918 191.689048 
L 381.991705 198.64247 
L 383.194503 220.210947 
L 383.244012 219.555131 
L 384.519979 194.497838 
L 385.775961 181.975072 
L 386.979747 175.01603 
L 388.182545 153.444683 
L 388.232054 154.100425 
L 389.508021 179.155791 
L 390.764003 191.673845 
L 391.967789 198.638612 
L 393.170588 220.2129 
L 393.220096 219.557233 
L 394.496063 194.50373 
L 395.752045 181.990256 
L 396.955831 175.019862 
L 398.15863 153.44266 
L 398.208138 154.098254 
L 399.484105 179.149885 
L 400.740087 191.65869 
L 401.943874 198.634816 
L 403.146672 220.214964 
L 403.19618 219.559444 
L 404.472148 194.509621 
L 405.728129 182.005389 
L 406.931916 175.02366 
L 408.134714 153.440625 
L 408.184222 154.096072 
L 409.46019 179.144012 
L 410.716171 191.643585 
L 411.919958 198.631017 
L 413.122756 220.216995 
L 413.172264 219.561622 
L 414.448232 194.515493 
L 415.704213 182.014918 
L 416.908 174.987539 
L 418.105782 153.599463 
L 418.143916 154.022621 
L 418.905234 166.908356 
L 419.409375 174.317495 
L 419.44408 174.261413 
L 420.235318 173.048845 
L 420.311517 173.705772 
L 420.939549 186.429666 
L 421.314884 194.973925 
L 422.145701 217.572794 
L 422.189645 217.157887 
L 422.612987 203.347146 
L 424.018747 159.40335 
L 424.497314 145.212161 
L 427.057495 37.005455 
L 427.137392 40.3065 
L 427.495524 110.226643 
L 427.6112 106.835073 
L 427.6112 106.835073 
L 427.697338 106.010152 
L 428.009391 145.733066 
L 428.917552 274.671311 
L 429.200663 345.114545 
L 429.271018 343.010215 
L 429.623947 290.795802 
L 432.263296 270.863166 
L 433.571341 220.787669 
L 434.763948 189.6953 
L 435.504677 179.658346 
L 436.312891 175.145216 
L 436.448792 172.300755 
L 437.251989 152.986038 
L 437.3102 153.572929 
L 438.591719 179.385898 
L 439.829828 192.441277 
L 441.036472 198.749949 
L 442.245516 220.100018 
L 442.295025 219.435675 
L 443.580038 194.064091 
L 444.818147 181.147652 
L 446.024791 174.906761 
L 447.233835 153.556552 
L 447.283344 154.22089 
L 448.568357 179.59234 
L 449.806466 192.508514 
L 451.01311 198.749723 
L 452.222154 220.100085 
L 452.271663 219.435751 
L 453.556676 194.064409 
L 454.794785 181.148495 
L 456.001429 174.906987 
L 457.210473 153.556484 
L 457.259982 154.220813 
L 458.544995 179.592023 
L 459.783104 192.507671 
L 460.989748 198.749497 
L 462.198793 220.10018 
L 462.248301 219.435855 
L 463.533314 194.064745 
L 464.771423 181.149368 
L 465.978067 174.907214 
L 467.187112 153.556368 
L 467.23662 154.220688 
L 468.521633 179.591671 
L 469.759742 192.506725 
L 470.966386 198.749237 
L 472.175431 220.100212 
L 472.224939 219.435897 
L 473.509952 194.06508 
L 474.748061 181.150322 
L 475.954706 174.907497 
L 477.16375 153.556401 
L 477.213258 154.22071 
L 478.498272 179.591352 
L 479.736381 192.505844 
L 480.943025 198.748987 
L 482.152069 220.100236 
L 482.201577 219.435932 
L 483.486591 194.065398 
L 484.7247 181.151166 
L 485.931344 174.907724 
L 487.140388 153.556333 
L 487.189897 154.220633 
L 488.47491 179.591034 
L 489.713019 192.505001 
L 490.919663 198.74876 
L 492.128707 220.100304 
L 492.178216 219.436009 
L 493.463229 194.054673 
L 494.701338 181.080489 
L 495.903065 175.236596 
L 497.088381 155.16234 
L 497.196634 157.952402 
L 498.676846 202.383896 
L 499.052199 209.771002 
L 501.147658 209.990874 
L 501.199196 210.222475 
L 501.583727 218.903549 
L 502.090413 229.384032 
L 502.103204 229.294268 
L 510.119757 172.427284 
L 510.914249 158.195862 
L 510.969007 158.439291 
L 513.215835 179.046622 
L 513.228597 179.016575 
L 514.041824 177.14806 
L 514.074091 177.238721 
L 514.209991 178.643418 
L 515.292164 193.921719 
L 516.208735 209.118912 
L 516.264007 208.83873 
L 517.528614 196.681176 
L 517.569049 196.751799 
L 518.698019 198.725691 
L 518.737658 198.679749 
L 518.995822 195.741138 
L 520.242902 180.085898 
L 521.231818 165.276987 
L 521.289865 165.647996 
L 522.516933 177.915024 
L 522.557369 177.903356 
L 523.725977 177.66999 
L 523.984141 180.303861 
L 525.051528 191.951467 
L 526.220137 209.524061 
L 526.278184 209.088307 
L 527.545688 195.11302 
L 528.714296 193.150441 
L 529.158989 189.161967 
L 530.039847 180.675969 
L 531.208456 163.392819 
L 531.266504 163.869339 
L 532.534007 178.942296 
L 533.760663 182.804473 
L 535.028166 193.610799 
L 536.196775 210.619326 
L 536.254823 210.108798 
L 537.522326 194.1723 
L 538.778376 188.783981 
L 540.016485 179.45893 
L 541.185094 162.833621 
L 541.234603 163.257892 
L 542.510645 180.073173 
L 544.472168 190.928859 
L 545.004805 194.73747 
L 546.173413 210.873403 
L 546.222922 210.425916 
L 547.498964 192.951403 
L 549.112266 183.370006 
L 549.9727 178.705911 
L 551.161732 162.88634 
L 551.211241 163.354184 
L 552.487283 181.376314 
L 553.743334 190.38893 
L 554.947184 195.219676 
L 556.150051 210.514225 
L 556.19956 210.029011 
L 557.475602 191.574337 
L 558.731653 181.458717 
L 559.891291 178.485722 
L 560.344109 173.03025 
L 561.138371 163.563337 
L 561.182583 163.995568 
L 562.643614 185.04058 
L 563.719972 195.062844 
L 564.87961 195.725374 
L 565.137774 198.465803 
L 566.12669 209.080462 
L 566.170902 208.634646 
L 567.805149 185.175601 
L 568.658885 175.880925 
L 568.708291 175.951901 
L 569.828289 177.560166 
L 569.867929 177.515656 
L 570.126093 175.149126 
L 571.115009 165.93266 
L 571.153044 166.288117 
L 572.814906 190.203566 
L 573.642287 199.890929 
L 573.688331 199.781345 
L 574.835628 197.501048 
L 574.957833 198.852494 
L 575.747102 209.123698 
L 575.802374 208.650567 
L 576.746465 197.460313 
L 576.776562 197.468021 
L 577.602644 197.597063 
L 577.738256 196.050667 
L 580.661766 161.766649 
L 580.750424 161.50084 
L 580.794753 161.52664 
L 580.883411 161.8588 
L 581.011849 162.996779 
L 582.081911 173.078891 
L 582.313372 173.780691 
L 582.40203 173.774048 
L 582.487305 173.593501 
L 585.254299 167.213284 
L 585.387286 167.651485 
L 585.577434 168.686332 
L 585.814583 170.881421 
L 587.339291 189.184526 
L 589.156535 207.496124 
L 589.190505 207.413174 
L 589.351746 206.102927 
L 589.969576 200.76703 
L 590.024847 201.042391 
L 590.881027 209.937153 
L 590.936298 209.282258 
L 591.864746 197.039429 
L 591.881719 197.043533 
L 592.304597 197.730868 
L 592.688799 198.36155 
L 592.736592 198.317065 
L 593.02952 195.004549 
L 594.260996 179.651387 
L 595.249912 165.072352 
L 595.307959 165.446873 
L 596.535027 177.836847 
L 596.584433 177.826478 
L 597.744071 177.686768 
L 598.002235 180.336023 
L 599.078593 192.193195 
L 600.238231 209.818803 
L 600.296278 209.37555 
L 601.572752 195.159693 
L 602.73239 193.096819 
L 603.185208 189.017402 
L 604.066912 180.422269 
L 605.22655 163.054457 
L 605.284597 163.555985 
L 606.561071 179.297423 
L 607.79918 184.082646 
L 609.055231 194.10277 
L 610.214869 210.761092 
L 610.264377 210.346717 
L 611.54939 193.777861 
L 612.967192 186.573965 
L 614.04355 178.998477 
L 615.203188 162.78465 
L 615.252696 163.223327 
L 616.53771 180.504416 
L 618.686263 192.601851 
L 619.014963 194.931354 
L 620.191507 210.829253 
L 620.241016 210.369076 
L 621.526029 192.486109 
L 622.943831 183.280536 
L 623.982255 178.54053 
L 625.179826 163.023276 
L 625.229335 163.502014 
L 626.514348 181.872664 
L 627.752457 191.462266 
L 628.921065 195.005079 
L 629.365758 200.485516 
L 630.168145 210.285382 
L 630.217654 209.791139 
L 631.673389 189.502071 
L 632.740776 180.39406 
L 633.909385 178.246738 
L 634.354077 173.092567 
L 635.156464 163.868947 
L 635.200677 164.295392 
L 636.661708 185.076283 
L 637.729095 195.021716 
L 638.897704 195.764154 
L 639.155868 198.532553 
L 640.144783 209.254075 
L 640.188996 208.805863 
L 641.819402 185.26329 
L 642.676978 175.898815 
L 642.717414 175.954788 
L 643.846383 177.516862 
L 643.886023 177.469794 
L 644.144187 175.076298 
L 645.133103 165.760351 
L 645.171138 166.120817 
L 647.003722 192.555992 
L 647.665298 200.34547 
L 647.705733 200.212082 
L 648.874342 196.448559 
L 648.961784 197.023086 
L 650.121422 205.822674 
L 650.159457 205.48916 
L 651.95446 181.533011 
L 652.645146 174.147287 
L 652.657909 174.186747 
L 653.471136 176.65438 
L 653.503403 176.585181 
L 653.639303 175.199852 
L 654.442501 164.81884 
L 654.550754 165.891424 
L 655.381611 176.431133 
L 655.425555 176.341737 
L 655.675862 173.523688 
L 655.876847 171.420348 
L 655.937123 171.579898 
L 656.080691 173.872038 
L 657.447798 202.239509 
L 658.151521 221.714897 
L 659.938925 224.131182 
L 660.043553 224.272479 
L 660.12345 226.052826 
L 660.400285 242.97653 
L 660.411951 242.783361 
L 660.557898 231.948008 
L 660.809033 210.568038 
L 661.90361 158.106313 
L 661.983834 158.298706 
L 662.105424 159.624159 
L 662.257076 153.73994 
L 662.543453 133.807233 
L 662.567134 134.152288 
L 664.591838 162.542769 
L 664.894734 160.271866 
L 665.197629 158.004775 
L 665.241737 158.055608 
L 665.367339 159.468906 
L 667.319799 187.696565 
L 667.833549 191.962447 
L 668.591447 192.282243 
L 668.656132 192.434395 
L 668.935096 194.98072 
L 669.572553 200.787933 
L 669.616486 200.640319 
L 669.879164 197.096495 
L 671.155922 180.649303 
L 671.74524 174.238162 
L 671.791284 174.362057 
L 672.988879 177.514317 
L 673.247032 175.567747 
L 674.23589 167.947739 
L 674.273925 168.291959 
L 676.292917 195.623756 
L 676.767946 200.976949 
L 676.813448 200.807207 
L 677.976921 196.568803 
L 678.014957 196.753991 
L 679.223932 205.712078 
L 679.261967 205.36786 
L 681.280959 178.036586 
L 681.755988 172.68407 
L 681.80149 172.853659 
L 682.964964 177.088172 
L 683.043429 176.596584 
L 684.211974 167.941295 
L 684.25001 168.285509 
L 686.269001 195.616312 
L 686.744031 200.968165 
L 686.789532 200.798727 
L 687.953006 196.568065 
L 688.031471 197.059883 
L 689.200016 205.71852 
L 689.238052 205.374308 
L 691.257043 178.044031 
L 691.732073 172.692855 
L 691.777574 172.862141 
L 692.941048 177.088911 
L 693.019513 176.596861 
L 694.188058 167.934855 
L 694.226094 168.279064 
L 696.245086 195.608862 
L 696.720115 200.959373 
L 696.765616 200.790238 
L 697.92909 196.567321 
L 698.007555 197.0596 
L 699.1761 205.724951 
L 699.214136 205.380745 
L 701.233128 178.051486 
L 701.708157 172.701656 
L 701.753658 172.870638 
L 702.917132 177.08966 
L 702.995597 176.597149 
L 704.164142 167.928417 
L 704.202178 168.272619 
L 706.22117 195.601393 
L 706.696199 200.950558 
L 706.7417 200.781727 
L 707.905174 196.566574 
L 707.983639 197.059316 
L 709.152185 205.731417 
L 709.19022 205.387217 
L 711.209212 178.058973 
L 711.684241 172.710491 
L 711.729742 172.879168 
L 712.893216 177.090405 
L 712.971681 176.59743 
L 714.140227 167.921963 
L 714.178262 168.266158 
L 716.197254 195.593922 
L 716.672283 200.94174 
L 716.717785 200.773214 
L 717.881258 196.565829 
L 717.959724 197.059034 
L 719.128269 205.737846 
L 719.166304 205.393653 
L 721.185296 178.066423 
L 721.660325 172.719285 
L 721.705827 172.887659 
L 722.8693 177.09115 
L 722.947766 176.597714 
L 724.116311 167.915535 
L 724.154346 168.259725 
L 726.173338 195.58647 
L 726.648367 200.945599 
L 726.697768 200.770059 
L 727.857342 196.745331 
L 727.935808 197.251362 
L 729.099337 206.106707 
L 729.137471 205.755885 
L 730.07763 193.937888 
L 730.452966 189.854314 
L 731.397034 183.821598 
L 732.200192 181.542077 
L 732.665667 176.415435 
L 733.095311 171.718501 
L 733.139255 171.747117 
L 733.255829 173.331403 
L 735.008231 205.152453 
L 735.464464 212.366786 
L 738.05105 275.199865 
L 738.130947 273.216827 
L 738.489079 231.931751 
L 738.585075 233.269466 
L 738.690893 234.284309 
L 739.043437 207.567903 
L 739.301 186.598403 
L 739.301 186.598403 
" clip-path="url(#p2a83e4cb84)" style="fill: none; stroke: #ff7f0e; stroke-width: 2; stroke-linecap: square"/>
   </g>
   <g id="patch_3">
    <path d="M 86.222 360.52 
L 86.222 21.6 
" style="fill: none; stroke: #000000; stroke-width: 0.8; stroke-linejoin: miter; stroke-linecap: square"/>
   </g>
   <g id="patch_4">
    <path d="M 770.4 360.52 
L 770.4 21.6 
" style="fill: none; stroke: #000000; stroke-width: 0.8; stroke-linejoin: miter; stroke-linecap: square"/>
   </g>
   <g id="patch_5">
    <path d="M 86.222 360.52 
L 770.4 360.52 
" style="fill: none; stroke: #000000; stroke-width: 0.8; stroke-linejoin: miter; stroke-linecap: square"/>
   </g>
   <g id="patch_6">
    <path d="M 86.222 21.6 
L 770.4 21.6 
" style="fill: none; stroke: #000000; stroke-width: 0.8; stroke-linejoin: miter; stroke-linecap: square"/>
   </g>
   <g id="legend_1">
    <g id="patch_7">
     <path d="M 96.722 353.02 
L 225.164188 353.02 
Q 228.164188 353.02 228.164188 350.02 
L 228.164188 307.485625 
Q 228.164188 304.485625 225.164188 304.485625 
L 96.722 304.485625 
Q 93.722 304.485625 93.722 307.485625 
L 93.722 350.02 
Q 93.722 353.02 96.722 353.02 
z
" style="fill: #ffffff; opacity: 0.8; stroke: #cccccc; stroke-linejoin: miter"/>
    </g>
    <g id="line2d_13">
     <path d="M 99.722 316.633281 
L 114.722 316.633281 
L 129.722 316.633281 
" style="fill: none; stroke: #1f77b4; stroke-width: 2; stroke-linecap: square"/>
    </g>
    <g id="text_13">
     <!-- Vertical -->
     <g transform="translate(141.722 321.883281) scale(0.15 -0.15)">
      <defs>
       <path id="DejaVuSerif-56" d="M 1119 4331 
L 2497 750 
L 3872 4331 
L 3347 4331 
L 3347 4666 
L 4716 4666 
L 4716 4331 
L 4263 4331 
L 2597 0 
L 2059 0 
L 403 4331 
L -63 4331 
L -63 4666 
L 1638 4666 
L 1638 4331 
L 1119 4331 
z
" transform="scale(0.015625)"/>
       <path id="DejaVuSerif-65" d="M 3469 1600 
L 991 1600 
L 991 1575 
Q 991 903 1244 561 
Q 1497 219 1991 219 
Q 2369 219 2611 417 
Q 2853 616 2950 1006 
L 3413 1006 
Q 3275 459 2904 184 
Q 2534 -91 1931 -91 
Q 1203 -91 761 389 
Q 319 869 319 1663 
Q 319 2450 753 2931 
Q 1188 3413 1894 3413 
Q 2647 3413 3050 2948 
Q 3453 2484 3469 1600 
z
M 2791 1931 
Q 2772 2513 2545 2808 
Q 2319 3103 1894 3103 
Q 1497 3103 1269 2806 
Q 1041 2509 991 1931 
L 2791 1931 
z
" transform="scale(0.015625)"/>
       <path id="DejaVuSerif-72" d="M 3059 3328 
L 3059 2497 
L 2728 2497 
Q 2713 2744 2591 2866 
Q 2469 2988 2234 2988 
Q 1809 2988 1582 2694 
Q 1356 2400 1356 1850 
L 1356 331 
L 2022 331 
L 2022 0 
L 263 0 
L 263 331 
L 781 331 
L 781 2994 
L 231 2994 
L 231 3322 
L 1356 3322 
L 1356 2731 
Q 1525 3078 1790 3245 
Q 2056 3413 2438 3413 
Q 2578 3413 2733 3391 
Q 2888 3369 3059 3328 
z
" transform="scale(0.015625)"/>
      </defs>
      <use xlink:href="#DejaVuSerif-56"/>
      <use xlink:href="#DejaVuSerif-65" x="63.091797"/>
      <use xlink:href="#DejaVuSerif-72" x="122.271484"/>
      <use xlink:href="#DejaVuSerif-74" x="170.074219"/>
      <use xlink:href="#DejaVuSerif-69" x="210.259766"/>
      <use xlink:href="#DejaVuSerif-63" x="242.242188"/>
      <use xlink:href="#DejaVuSerif-61" x="298.248047"/>
      <use xlink:href="#DejaVuSerif-6c" x="357.867188"/>
     </g>
    </g>
    <g id="line2d_14">
     <path d="M 99.722 338.650469 
L 114.722 338.650469 
L 129.722 338.650469 
" style="fill: none; stroke: #ff7f0e; stroke-width: 2; stroke-linecap: square"/>
    </g>
    <g id="text_14">
     <!-- Horizontal -->
     <g transform="translate(141.722 343.900469) scale(0.15 -0.15)">
      <defs>
       <path id="DejaVuSerif-48" d="M 353 0 
L 353 331 
L 947 331 
L 947 4331 
L 353 4331 
L 353 4666 
L 2175 4666 
L 2175 4331 
L 1581 4331 
L 1581 2719 
L 4000 2719 
L 4000 4331 
L 3406 4331 
L 3406 4666 
L 5228 4666 
L 5228 4331 
L 4634 4331 
L 4634 331 
L 5228 331 
L 5228 0 
L 3406 0 
L 3406 331 
L 4000 331 
L 4000 2338 
L 1581 2338 
L 1581 331 
L 2175 331 
L 2175 0 
L 353 0 
z
" transform="scale(0.015625)"/>
       <path id="DejaVuSerif-7a" d="M 256 0 
L 256 269 
L 2338 2988 
L 691 2988 
L 691 2413 
L 359 2413 
L 359 3322 
L 3078 3322 
L 3078 3053 
L 997 331 
L 2803 331 
L 2803 934 
L 3138 934 
L 3138 0 
L 256 0 
z
" transform="scale(0.015625)"/>
      </defs>
      <use xlink:href="#DejaVuSerif-48"/>
      <use xlink:href="#DejaVuSerif-6f" x="87.207031"/>
      <use xlink:href="#DejaVuSerif-72" x="147.412109"/>
      <use xlink:href="#DejaVuSerif-69" x="195.214844"/>
      <use xlink:href="#DejaVuSerif-7a" x="227.197266"/>
      <use xlink:href="#DejaVuSerif-6f" x="279.882812"/>
      <use xlink:href="#DejaVuSerif-6e" x="340.087891"/>
      <use xlink:href="#DejaVuSerif-74" x="404.492188"/>
      <use xlink:href="#DejaVuSerif-61" x="444.677734"/>
      <use xlink:href="#DejaVuSerif-6c" x="504.296875"/>
     </g>
    </g>
   </g>
  </g>
 </g>
 <defs>
  <clipPath id="p2a83e4cb84">
   <rect x="86.222" y="21.6" width="684.178" height="338.92"/>
  </clipPath>
 </defs>
</svg>
